<mxfile host="app.diagrams.net" modified="2022-07-19T06:45:10.213Z" agent="5.0 (Windows NT 10.0; Win64; x64) AppleWebKit/537.36 (KHTML, like Gecko) Chrome/103.0.0.0 Safari/537.36" etag="ouuWiPr0IwLa0AXpBYCU" version="20.1.1" type="github">
  <diagram id="xlTx3bGfubO3MEDNDlCu" name="Page-1">
    <mxGraphModel dx="1422" dy="705" grid="1" gridSize="10" guides="1" tooltips="1" connect="1" arrows="1" fold="1" page="1" pageScale="1" pageWidth="827" pageHeight="1169" math="0" shadow="0">
      <root>
        <mxCell id="0" />
        <mxCell id="1" parent="0" />
        <mxCell id="xIAL2lGmnQFQKnVaAjIA-1" style="edgeStyle=orthogonalEdgeStyle;rounded=0;orthogonalLoop=1;jettySize=auto;html=1;exitX=0;exitY=0.5;exitDx=0;exitDy=0;strokeWidth=4;" edge="1" parent="1" source="wS7xLxOmRzhV0gcM0dTc-1" target="wS7xLxOmRzhV0gcM0dTc-9">
          <mxGeometry relative="1" as="geometry" />
        </mxCell>
        <mxCell id="wS7xLxOmRzhV0gcM0dTc-1" value="" style="shape=image;verticalLabelPosition=bottom;labelBackgroundColor=default;verticalAlign=top;aspect=fixed;imageAspect=0;image=data:image/png,iVBORw0KGgoAAAANSUhEUgAAAWQAAAFlCAYAAADcR5KFAAAAAXNSR0IArs4c6QAAAARnQU1BAACxjwv8YQUAAAAJcEhZcwAADsMAAA7DAcdvqGQAABnNSURBVHhe7d1PjF3XXcDx35sZuymZOoPEot2QqWABC8BpF1CJIncDYlHhiA0LpNqqHQVV0KkqVBCLOAsEEYs6oIo0Y5FUYsGKJAIhoEJNWyTUTe2wR4m7oUvbtYUTz7zLOfPOi8+z58w7955z7j1/vh9pNPceO+OZ8W9+8/X4eSIAAAAAAAAAAAAAAAAAAAAA0NPMPAeyd0oun51L9/VO5Jy+V8P79inZunhfXnnv6CcAhds0z4GsbcilF9Qi/gd1ubs4ObJ7KPO9mXxKOvnhd80ZUCwKGVnTVXwo3Wvq8uzixOnGpswuPpD9G+YeKA6FjGxZVfzxxcmJPq5+7vPUMkpGISM7ParYhVpGkShkZKVnFbtQyygShYwsRKhiF2oZxaCQMblIVexCLaMYFDImk7CKXahlZG3DPAdGpatYLePr6rLnMp69o5bqM/pJX5tDX/oTwHX9a5t7ICsUMkYVWMUvzuXaFXN9RC1XfT9kwd44LVvP8q/8kBO+hozRDP9a8VEV//ahXNP/7YpOfvj2lnz6rU5mn1G3fV7uxw9lfmEmn76vXsYPzBkwKQoZycWuYpehtaw+CPieGMgChYykUlSxS0At6++JQS1jchQykhiril2oZZSIQkZ0G3L5y510r6tL+zuzeehfxS7UMkpEISOaJ+T53Qdy8Fpnvl9xT8FV7EItoxQUMqLQVazKUpftLyxOfMWrYhdqGaWgkBEk1yp2oZaRMwoZg+VcxS7UMnJGIaO30qrYhVpGbihk9FJiFbtQy8gNhQwvtVSxC7WMHFDIWKumKnahlpEDChlOtVexC7WMqVDIOFYLVexCLWMqFDJWtFrFLtQyxkQh40MtV7ELtYwxUcigij1Ry0iNQm4cVeyPWkZqFHKjqOIw1DJSoJAbRBWHo5aRAoXcEKo4DWoZsVDIjaCK06GWEQuFXDmqeFzUMkJQyBWjisdHLSMEhVwhqjgP1DL6opArQxXng1pGXxRyJajivFHL8EEhV4Aqzh+1DB8UcsGo4jJRy3ChkAtFFZeLWoYLhVwYqrgu1DJsFHJBqOL6UMuwUcgFoIrbQC2DQs4cVdwOahkUcqao4rZRy22ikDNEFYNabhOFnBGqGMehlttBIWeCKoYLtdwOCnliVDH6oJbrRiFPiCpGX9Ry3SjkCVDFiIFarg8LeWS6ilXn6A+kncWJL13FcuGB7N8wB4CckstnD6V7U10+vTjxdkvN1JW57L9s7pEBFvJIqGKksiN7O3flnlqunfpk3w+1nBcW8gi25Lk/mcv8z9Tl9uLEF1UMf1ty6dxc5HV12beW727Ixp8fyKt/ae4xERZyQk/Ipc9+IPLvR5f9UcXoLaSWlfunRX7zvlz7vrnHyFjIiezIl56+I+//j7rs+UgWqhjhAmr58Ixs/8wtuXrL3GNEPOwtkQfyK99Uz35pcedNV/HvzeWHPzb3wCBqht57Sn7j9Qfy4KOdyK+ZYx8b6r+5p/7775l7jGjDPEdkncx+1Vz6uLkps2f4EgVi0pV7IPt76oP8c+r29uJ0PVXWv2suMTIWciIz6fpU7tPqg+AF/fU/cw9EoWdKxYH+evJTixMvQ/7OAxGwkBOZyazXv4bqpDt/R+6+uynPnTdHQBA9S3qm9GyZIy8qJviXfBNhIScyl27IX4qompm/sSmX36CWMZSeHT1DepaObnvqRHhM8kRYyBmiljHU0CpGHljI+aKW4S20ipEHFnLmqGWsQxXXg4VcBmoZj6GK68NCnshM5Fvq2c3FnR9qGUsBVXzTzB4yxEKeiP6b7DOyfXZDZn2//SG13LCQKtazpmeOR1Hki4U8oUf+JRW1jBOFVLGeMT1rfI+KvLGQM3Ag196mluESo4r1jJkjZIyFnAlqGcehitvCQs4MtQyNKm4TCzlD1HLbqOJ2sZAzRi23hSoGCzlz1HIbqGJoLORCUMt1oophYyEXhFquC1WMR7GQC0Qtl40qhgsLuVDUcpmoYpyEhVw4arkMVDF8sJArQC3njSqGLxZyRajlvFDF6IuFXBlqOQ9UMYZgIVeKWp4GVYwQLOSKUcvjoooRioXcAGo5LaoYsbCQG0Etp0EVIyYWcmOo5TioYqTAQm4QtRyGKkYqLOSGUcv9UMVIjYXcOGrZD1WMMbCQcYRaPh5VjDGxkPEhankVVYyxsZDxmGUtz0TeMke+qqhlqhhTYSHjWLrsDuXa+ZlsPKtuby9O/ZRcy1QxpsRCxokO5dU3VfHt1l7LVDFywELGWrXXMlWMXLCQ4a22WqaKkRsWMnqppZapYuSIhYxBSq3lkCrWbytVjJRYyBistFoOqOLb+m3UbytVjJRYyAiWey1HqOJd/TaaIyAZFjKiyLWWqWKUhIWMqHKpZaoYJWIhI7qpa5kqRqlYyEhm7FqmilE6FjKSGquWqWLUgIWMUaSqZaoYNWEhYzSxa5kqRm1YyBhdjFqmilEjFjImEVrLVDFqxELGpAJq2RtVjFKwkDG5kFpegypGUVjIyEbMWqaKUSIWMrISoZapYhSLhYwsDallqhilYyEjW4/U8omoYtSAhYzs+RQvVYwasJABIBMsZADIBAsZADLBQgaATLCQASATLGQAyAQLGQAywUIGgEywkAEgEyxkAMgECxkAMsFCBoBMsJABIBMsZADIBAsZADLBQgaATLCQASATLGQAyAQLGQAywUIGgEywkAEgEyxkAMgECzmBJ+T5XZHZF8yty1c/Ks/9urkGRmFm7quLO5fZFxYzjLGxkCPbkMtf/kAOrot06wZ6+32Zf29TLv+juQeS0rOmZ05dbi9OXLpdPcN6ls0BRjIzzxFIF8UDOXitEzlnjvq49RHZ+Pz/yav/ae7xiA25pN61bnO5xiw76CpWi/if1OXO4sSfeqe+fUq2Lt6XV94zR0iIQo5gWcUDl7G2Qy0jBauKey9jTc80tTweqiJAYBW7UMvHoJD7CaliF2o5PQp5oAhV7EItI0hoFbtQy+lRFT0lqmIXatmgkNdLUcUu1HIaFHIPw6t49s6GzF5Szw/MgS9qGV6GV/HsQM3mC3pGzYEXajkNCtlDYBW/qOrtir7YkS89fUfef0NdPqPve2q6link4wVW8fUz8pFnb8k3buob9T7Wc6qWcz/UcjwU8hohVbwps2eWy1jTg6/uP7Up8hVdJubYF7WMFSFVrGdQz+JyGWt6VvXM6tk1R16o5XgoZIdYVexCLfdDIT8Us4pdqOVpUMjHiFnFLtQyhohdxS56hqnl8VHIltRV7BJay6p4zvp8kJWs9UIeo4pdqOXxUMjGGFXsElrLapm/uyXP/YW5R2XGqmIXPdvU8jiaL+SpqtglsJb/V5XQZ2qs5RYLecoqdqGW02q6kKesYpfAWv4EtVyHqavYRc88tZxOk4WcWxW7UMsPtVLIOVaxC7UcX3OFnGMVu1DLbcm1il30xwK1HFczhVxKFbu0Xss1F7L5vb1xdNnfqFXssiWXr86l671gqeVVTRRySVXsQi3XSf+e6N8bdVlEFbscyP6eWiafU5e9XhdqeVXVhVx6Fbu0WMu1FbL5PfwvdfmJxUkvWVTxcXZkb+eu3LtCLQ9T7UJefMbt9ELtWx6qiuXCA9nXf4TM2im5tHcos79Sb+eWOfLVbcjGSwfy6p+a++zVtJB1Fc9l/jV12fN11lXc/fEDuXbVHGRrSy6dm4u8ri6fXpx4u6XeTrXQ9182902pbiHXWsUurdRyDQu51ip2oZb7q2oht1DFLrXXcukLuYUqdqGW/VWxkFurYpeaa7nUhdxaFbtQy36KX8jDq1hubsrsfMlV7FJjLZe4kFuuYhdq+WTFLuSQKt6Q2cvb8uSVW3JV/SbXqbZaLmkhU8Uno5bdilzIIVW8IXLhQK69be6rV0stl7KQqWJ/1PLjilrIVPEwNdRy7guZKh6GWl5VzEKmisOVXMs5L2SqOBy1vJD9QqaK4yq1lnNcyFRxXNRy5guZKk6ntFrObSFTxem0XMtZLmSqeBwl1XIuC5kqHkertZzdQqaKx1dCLeewkKni8YXU8kw2Lh7Kq2+a+yJks5Cp4mnlXstTLmSqeFphtTx782Py5MVSdkMWC5kqzkeutTzVQqaK89FCLU+6kKniPOVYy2MvZKo4T7XX8mQLmSrOX061POZCporzV2stj76QqeKy5FLLYyxkqrgsNdbyqAuZKi7X1LWceiFTxeWqqZZHWcj6M9lP5J6q4u68OfJGFedjylpOtZCp4jrUUsvJF/KmPHe+k/lr6pIqrsQUtZxiIVPF9Sm9lpMtZKq4bmPXcsyFTBXXreRaTrKQqeJ2jFXLsRYyVdyOEms56kKmits0Ri2HLmSquE2l1XK0hUwVI2Uthyxkqhil1HLwQqaKYUtVy0MWMlUMWwm1HLSQqWK4xK7lvguZKoZLzrU8aCFTxfARs5Z9FzJVDB+51nLvhUwVo68YteyzkKli9JVbLXsPLlWMEKG1rJ7WFa/PzzkOVdy4nGrZayFTxYgloJYjo4qxKodaPnEhU8VIIbCWY6CKcaypa9m5kKlipDZ+LVPF8DNVLT+2kJ+QS5/9QGZ/rz5IftYceaOK0deilj/4DzVvP2eOUqGK0UtILavV+qPT0v3+fbn2fXPgZWUhn5IvXlLFsm9u+6CKEWT4IyTWoYoRJqCW1U6dff592f9nc7uW2qMPqWX8DXPpTVfxGdk+yzJGCP3QNlWwn1QLVD9aIhZVxad/nmWMEHq36R2nd5058vZAul6B+2GNnJLLZw+lu25ufVDFSCK8lqlipDGklk/L1ifvyyvvmdsTrRRyHzOZfWdbtm+YWyCabfmpl9R8/Yu57U1t8X97Urb1Bw0Qld55eveZWy8HcrBrLtdaKZB1/xrqcbP3NqS7SCUjloBH9zxq1O/Shfot6nimZrPzXrDaGdn+ad8HOgQu5AWV2VfVZ44XeXQFhgp5zPtJYv9LKrRn8WiLuy/MRfbMUS8nfWvYRw3+koVNv6J35N51/RnEHAHedBXfkbvvxl7Gmn6Z+mXrX8McAd70TtO7begy7itKIduoZfhKVcUu1DJ8hVaxbfRCtlHL8JGyil2oZfgYu4pt0QvZRi3jUWNXsQu1jEfFrGJbykK+bZ57oZZhC6hin7nrNZvUMmwBVdxr7tbptZDPyPauWvVvmVtP3a56I7+j3uCv689A5hAN0b/vm3L5jU7m+ju89ZoBPW967syt07DZlB39OunXjdlsk/5917tJ76i+D2fznc0+VlLa5//KoJ/rqlCDrB94/5S+98fjlltjZmXI44pvz2TjwvJxxOlnk8ctt0ZX8ZDHFSuDZtPHoL/U068ItYyTxKjiIctx+GxSy62IUcWpPnGvbO4hm55axqNiVbGN2UQMsarYNnkh24YXCbVcm6mq2IXZxFLOVWxb2dyhm54iaVeKKrYxmxgqRRXbsipkG0XSntyq2IXZbE8pVWxb2dwxNz1FUr/UVWxjNtFH6iq2ZVvINoqkXsvyyL2KXZjNepVYxbaVzR1z09soknqMWR42ZhPr1DCbyQrZRpGUr/TycGE2y1fTbK5s7lQVYqNIyjNVediYTRynttkcpZBtFEk5aq1iF2azHLXO5srmHqNCbBRJvnIoDxuziaWaZ3P0QrZRJPlprYpdmM38tDCbK5t77AqxUSTTy608bMxm21qZzUkL2UaRTIcqPhmzOZ3WZnNlc09ZITaKZDw5l4eN2WxPi7OZTSHbKJL0qOJhmM30Wp7Nlc2dS4XYKJL4SikPG7PZhtZnM8tCtlEk8VDFcTGb8TCbCyubO8cKsVEkw5VYHjZms17M5kPZF7JNv+NPy9ZZ9dZ91xx5ardIKI9x6PcRtdwPs/m4lc2de4XY1Ou6p55dUU8UiUPp5WEraTap5fWYzeMVVcg29UZepZaPR3lMi1p2YzZPtrK5S6oQG7X8UE3lYSt1Nqnlh5jN9YotZBu1THnkilpmNvtY2dylVoitxVqutTxsNcxmi7XMbDZYyLaWapnyKEtLtcxsDrOyuWuoEFvNtdxCedhqm82aazlsNmd7h7Kv3y/FoJA91VjLlEcdaqzlwNn8rv5YLW0Zx7ayuWurEFsNtRxWHuVVsa3m2ayhlkNmUz1d0fG0uC0PhTxAybVMFdet5FqOUcUlL+PYVjZ3zRViK6mWQ8qj9Cq2tTKbJdVyyGyqp6Kr2EYhB9KDkHstU8VtKqGWqeJ0VjZ3KxViy7GWQ8qjpiq2tTibOdZyyGyqp2qq2EYhR6QHJJdapophy6mWqeJxrGzuFivEFlLLmyLPPpD9G+agt5DyqLWKba3P5pS1HDKb6qnKKrZRyInowRlay4fSXVe/MS+YA29UMXxMUctU8fhWNnfrFWIbXstyY1NmF31qmSr2x2w+NEYtU8X+KOQR6IEaVstydl0tU8UIkbKWqeJprWxuKuR4MWuZKh6G2TxezFqmioehkEemBy20lqlipBCjlp+Q53ep4jysbG4qZL2AWh6i6Sq2MZvrDa/lQZquYhuFPCE9gANruRf18qli9DK8lvvRs08Vp8FCHuC+vPLeoVw7py6/op50KcSkq/hZ9fLP35Krt8wZ4EXPjJ4ddZlkNtXTV/Ts64+BxRFiYiEHiF3LVDFiSTCbVPEIWMiBItUyVYzoYs2meqKKR8JCjmRokVDFSC1gNqnikbGQI3qkSO4fHbrdp4oxlr6zqZ6o4gmwkBPQRbEhs2+a22OpH3+ZKsbYPGfzm1TxNFjIicylO7F61Y+vqxQgCY/Z5E9sE2EhA0AmWMgAkAkWMgBkgoUMAJlgIQNAJljIAJAJFjIAZIKFDACZYCEDQCZYyACQCRYyAGSChQwAmWAhA0AmWMgAkAkWMgBkgoUMAJlgIQNAJljIAJAJFjIAZIKFDACZYCEDQCZ6LeQd2dsxl8BofOaO2cQUYs9dr4V8R+6+uynPnTe3QHJ63vTcmVsnZhNj853NPvp+yWKnk/kbm3L5DYoEKen50nOm5+3odj1mE6MYMJveHl3IN83zE3XSHX1moEiQwrI89JyZI2/MJlIaMJteO3VpZSHPRG6YSx8UCaKKWB7MJqIaOptqp75tLr2sLOSPyfYF9SLeMbdeKBLEEFLFLswmYhg+m7N31E7dMzdeVhbyLbl664w8eU5t9bfMkS+KBINErGIXZhODhMym3qF6l+qdao68PPaXevoFHMq18zPZeFbd3l6c+qFI0EdAFf/YPHljNtFHwGze1rtT79C+y1h7bCEvHcqrb56R7V1qGbGFlMeGzF5Wc/mL+klfm2NfzCZOFF7F27t6d5qj3pwLWaOWEVtAedxUw/q5A9nf03Opn/S1PtM/tvgpfphNHGeqKraduJCXqGWEilDFZw/k2mN/Y63P9I9Ryxhq6iq2eS1kjVrGULGq2Jw9hlrGUDlUsc17IS9Ry/CVqopdqGX4yqmKbb0Xshajlrfk0jlzhAqlrmIXahnr5FbFtkELeSmkluci31FL+esUSV3GrmIXahmPyrWKbUELWQupZbWU9+7IvevUch2mqmIXahlLOVexLXghLw2v5W6XWi5bLlXsQi23q4QqtkVbyBq13J7cqtiFWm5PKVVsi7qQl6jl+uVexS7Ucv1Kq2JbkoWsUcv1KqWKXajlepVYxbZkC3mJWq5HqVXsQi3Xo+QqtiVfyBq1XL7Sq9iFWi6f3g0lV7FtlIW8RC2Xp7YqdlnWsprNb5kjX9TyRPT7W+8EvRuObnvIqYptoy5kjVouR61V7GJm88KQ2aSWx7Wo4nvX9U4wR76yq2Lb6At5iVrOVytV7DJ8Nqnl1FaruNs1x15yrWLbZAtZo5bz01oVu4TMJrWcRq1VbJt0IS9Ry9NrvYpdqOXp1V7FtiwWskYtT4cqPhm1PJ0WqtiWzUJeopbHE1LFpjyqrGIXank8LVWxLbuFrFHL6QVUcZHlEQu1nF5rVWzLciEvUcvxRajiIssjNmo5vlar2Jb1Qtao5Xio4rio5XharmJb9gt5iVoejipOi1oejipeVcxC1qjl/qjicVDL/VHFjytqIS9Ry+tRxdOgltejit2KXMgatexGFU+LWnajik9W7EJeopYfoorzQi0/RBX7KX4ha9QyVZwrapkq7qOKhbzUYi1TxWWIUMuvlTibVHE/VS1kraVaporLEljLF0qaTap4mOoW8lLNtUwVl6322dSvH1U8TLULWauxlqniOtQ4m/r1oYrDVL2Ql2ooEqq4TrXMpn499OtDFYdpYiFrJRcJVVy3kmdT/7pUcTzNLOSlkoqEKm5LabOpfz3961LF8TS3kLUSimRRHlRxa8qZTao4hSYX8lKORbJaHlRxq/KfTao4haYXspZTkeiXQ3lgidlsT/MLeWnKIqE8cBJmsx0sZMsURaJ/PuWBdZjNNqhPYjiOLoOfyN3XO5HfMUfe1Ge5q+pd+/5cuq+Zo8dsyOwlVRwfGTDsR+XxMdm+wLC3idmsFwt5Df0Y4E7mr6vLpxYn3vRAnvTHxHU/fhxdHhf4IyA0ZrM+fMlijeFfv1s70L0GXv/6fD0ONmazPhRyDwFFEoLywFrMZh0o5B4CimQQygO+mM06UMgDJS4SygODMZvlopAHSlUklAdCMZvlopAjiFQklAeiYzbLQiFHEFoklAdSYTbLQiFH1rNIKA+MhtnMH4UcmR7g07J1dibdD8zRsdRnwm9THhiTnjVTy982R8diNqdDISe0KZf+tRP5LXP7oZnM/uZQ9v/I3AKj25TLf91J94fm9kNqNv9OzeYXzS1GxkJO7En5g1++LwcvinQ76t196wnZeuGe/O1/mx8GJsNsAgAAAAAAAAAAAAAAoEQi/w9MlMkB5mhAvwAAAABJRU5ErkJggg==;" parent="1" vertex="1">
          <mxGeometry x="607.02" y="360" width="89.75" height="90" as="geometry" />
        </mxCell>
        <mxCell id="wS7xLxOmRzhV0gcM0dTc-9" value="" style="shape=image;verticalLabelPosition=bottom;labelBackgroundColor=default;verticalAlign=top;aspect=fixed;imageAspect=0;image=data:image/png,iVBORw0KGgoAAAANSUhEUgAAAvIAAAGVCAYAAACcghUzAAAAAXNSR0IArs4c6QAAAARnQU1BAACxjwv8YQUAAAAJcEhZcwAADsMAAA7DAcdvqGQAADnSSURBVHhe7d1fiB1pet/x5z3ntFY7aml6IWH3wmR6yAQ2xDA9u4GscYgkkwuDL9TCubDBoFZyWhlYg1pXdkJitUIuHAioRVg8nu6g1l1yYdS6CZsEohb4Ig6bkeSQZBw2SAoOrPE62yO1ZrXSOVV5nq63Z/Tn/KlTp6pOvVXfD/ScemtmWkfvqVP1q7eeeksAAAAAAAAAAAAAAAAAAAAAAAAAAAAAAAAAAAAAAAAAAAAAAAAAAAAAAAAAAAAAAAAAAAAAAAAAAAAAAAAABMr5VwAAULC2XDgXS7Tom3JC5q/tycaebwLARAjyAACUoCXdu/qylLS+sNcSOduTrV3fBoDUdP8BAACKpCF+TV9eD/FmIRK56pcBYCIEeQAACuZElv3iIIMCPgCMRZAHAGDGOtI95RcBIDWCPAAAABAggjwAAAAQIII8AAAAECCCPAAAABAggjwAAAAQIII8AAAAECCCPAAAABAggjwAAAAQIII8AAAAECCCPAAAABAggjwAAAAQIII8AAAAECCCPAAAABAggjwAAAAQIII8AAAAECCCPAAAABAggjwAAAAQIII8AAAAECCCPAAAABAggjwAAAAQIII8AAAAECCCPAAAABAggjwAAAAQIII8AAAAECCCPAAAABAggjwAAAAQIII8AAAAECDnXwEAQEHa0t2NRU765hva4tb039/zzYl0pP3omXz00DcBNAhBHgCAgizI2sJjeXpOJP4n2vxLydqiuIdO3PpxeevWnmzs+ZUAaowgDwBAAVrSvawva/qzcLCiPHstke15mb9CoAfqjSAPAECOklH4/du6uJSsmZl7bXHnX8hmppIdANVHkAcAICdzsrrUl9hCfNmj8MPY6PzZnmzt+jaAGiHIAwCQA18Pf1ckXvSrqmLviHQ+4IZYoH6YfhIAgBw8kf2bFQzxZuG59G7aiYZvA6gJgjwAAFNqy+pKLHLKN6toaV+ervtlADVBaQ0AAFNqyeqDdKPx7qf63/2FLnR0+ZmT6M/sNfl32egJhN1U+3bSGq0t7gNufgXqgyAPAMAUOtI9FYnYDa7jXIpka8Mv5yq5IhDb7x4Z6PWgv9uXrdO+CSBwlNYAADAVt+wXhtKD7emiQrzpy+Z2W5yV9nyWrBnMyn8s9PsmgMAR5AEAmEIs8bj54q+UMf2jlcw4cfYAqpH0/V7lxlegHgjyAABMIRY56RcHOiKdbb9YOBuZdyJ3fHOYBW58BeqBIA8AQIHKnr+9lWJUPpL4oj28yjcBBIogDwBAjViJjYb5a745lIb5q34RQKAI8gAA1My8HLPSGW58BWqOIA8AQM3sycYeN74C9UeQBwCghrjxFag/gjwAADXFja9AvRHkAQCoKW58BeqNIA8AQI35G18fJa3BuPEVCBNBHgCAGktufG1x4ytQQwR5AABqri8f73DjK1A/+r0GAKCe7CbOWORt3yxEJPGuXxyoneKG0zLE4r4RSfTbvjmUvt8PrLbeNwFUGEEeAFAbbeme0UPbcizxsjYpE8lIw8GuBv+dI9K+9Uw+euhXA6gYgjwAIHhtuXBOw/u6SLzoVyEfe/qzcULmr1mtfbIKQFUQ5AEAwbKbM5/I0+t+BB6FcQ/bImcpuQGqhSAPAAiShfjHsn9bF3mYUTls9pvzduOsbwOYMYI8ACA4hPiZ2WuLO83IPFANTD8JAAjOE3lqTyIlxJdvoS9yk/nmgWpo+1cAAILQke6pWGTDN1G+hRfy4quRfPJ93wYwI5TWAACC0pbubQ3yp3xzDHffSVzCbCvuqL6nr4vEIY9UH/U/qRyRzrtMTQnMFkEeABAMe8BTX+K7vjnKlRMyv8GUiZNrSdceYGVPeB35IK2WuGs92azEw66ApiLIAwCC4UOm1ccP5cSd78vmtm8iA3/CZE+sHRXm70Wy9YFfLpW9v0jkciyxXZmxqyB28+2Ovp8r9u+BpuBmVwBAMJzIyPni9d/fIMRPz89KY6Pyo8zkZmO70VZPMm6/9vReey/rHVnl3gk0CkEeABCMeEy5hwZ5QnxOItkaG4rtxmO/WJrHsm9XZQbeixBJfNEvAo1AkAcAhGTkKHBPtqwcBDnRE6M7frEy9D2N3AZmcXIBzApBHgAAhIQ57AGPIA8AAAAEiCAPAAAABIggDwAAAASIIA8AAAAEyPlXAAAqryXd2C8OU9KTXN1XROKOvupxNO7r6wt97fl/WQKnf3Y8p69tfdU+cfpnxz/z/zJHbl5/r/5Zg7VETpc9U1Bburv6Fz7pm2+YxXsCZoUgDwAIRoogjxIR5IHZorQGAABk0pbOvF8EMAMEeQAAkEkkvff8IoAZIMgDAAAAASLIAwCATJy4H/lFADNAkAcAAJlEEhPkgRkiyAMAAAABYvpJAEAwxk0/2Ra55BcL0Rf5rr4MvcFTD6rfa4n80DdzF+mfrR1g72GYH2offM8vT60vTv+seOjfV/+uTD8JzBBBHgAQjHFBPpKtQo9rsw6RHeme0jB/2zffoH/5O33ZOuWbU6tiaCbIA1/S7R0AAABAaAjyAAAAQIAI8gAAAECACPIAAABAgAjyAAAAQIAI8gAAAECACPIAAABAgAjyAAAAQIAI8gAAAECACPIAAABAgAjyAAAAQIAI8gAAAECACPIAAABAgAjyAAAAQIAI8gAAAECACPIAAABAgAjyAAAAQIAI8gAAAECAnH8FAKDyWtKN/SKqb09Dxj39wHaPSOfGM/nooV8/lbZ0d/V3nvTNN7RETvdka9c3gVpjRB4AABRhQQP3KX1dfy69BxrAb8/J6lLyrwDkgSAPAAAKZ6G+L/HdjnSvLsjagl8NYAoEeQAAUJpIZO2x7N8mzAPTI8gDAICyLRHmgekR5AEAwCwsPZGn1/0ygAwI8gAAYCZiiZc7srrhmwAmRJAHAAAzE0l8sS2rK74JYALMIw8ACMa4eeQj2Up1XLOpEP3UiAPpL9nty9Zp30QGNtWkhvR17eczftVIbXEfvJDNe745FPPIA19iRB4AAOTOQrmeDC07cef9qpH6Et8+Kh8u+iaAFAjyAACgMH3Z3G6Ju+aboyw8l95NZrIB0iPIAwCAQvVkc82J3PLNUZjJBpgAQR4AABTuuMyviLj7vjkUM9kA6RHkAQBA4fZkY++ItJd18bNkzXDMZAOkQ5AHAITkkX8dyGZK8YuooGfy0cO2uKGzBb0slvg6nycwGkEeABAMJ/LQLw4USbzmF1FRNpsNM9kA+SDIAwCCoQFw5Dzjsci5jnRTjfhidpjJBsgHQR4AEAwnsu0Xh4pEbrZk9aJvoqKYyQaYnn6HAAAIR0u6Vl7zTtIaaU8PcvfsR8P9nl/nuRWReGjJhv4/PNm1BDbS/lie7upn8b5fNZSN4Fv458muwJcI8gCAoLTlwnIs0U3fLARBvjxWA/9celYy9XayZriktj5eIcgDCUprAABB6cvHOxq07/gmAjfpTDb6Mp+0ABDkAQDBOS7zNh/5yKkoEY5JZrKJxY0twwGagiAPAAiOPVyoLS7Vw4UQhvQz2cQdvwA0HkEeABAkG8U9Ip0lSfHY/wwY7Z+BCWayAaAI8gCAYFl99Qk5ZvXVV/Qnt9F5J/GP/CJKdlzmVwo6OQNqhyAPAAialdlEsrV+QuZtOslLeYTASNwzv4iS2ed5RNqUTQEpMP0kAKB2bErDnvQO5omPRJb05ZUng+rB72QsMmqmlCt2cuCXMQNzsrrUl/iub6bWYvpJNAhBHgDQOC3pWki/nLQGIshXQFtWV/yUk6kR5NEklNYAAIBKSj+TDdBMBHkAAFBZzGQDDEeQBwAAlTbJTDZt6fDkVzQGQR4AAFTaJDPZRNJ7zy8CtUeQBwAAlWfPDGiLGzXT0AEnjmcAoDEI8gAAIAj2NF+N6p/65kARD/NCgxDkAQBAMJzEf+YXgcYjyAMAAAAB4oFQABAoe/JlLPK2b9ZeR9qPrE7aN6fCA6HC1Zburm73J33zDW1xa/rv7/lmI/Rk845fRMMQ5AEgEElwj89pSLEAP/amv/pyD1sS78zL/BWbzcSvnAhBPlzjgnyTOXE7+s8bfflYX9EElNYAQABasnqxL/HtSMRGGxsc4k28aP3wWPYf2CP8/Uo0RnzUL+A1eqK/HEt0U092bi/I2oJfjRojyANAxdlBWQ/RG7rIgflVCxpcrmuYv+7baIBYWl/3ixjCTvbtRPeofLjoV6GmCPIAUGFWAsII/Gga5lcYmW+SmBPadBaeS+8mI/P1Ro08AFSU1cT3Jb7rmxht74TMv5u2Zr6MGnkbDX0h0clYIkZF8/Xb+kN5TXrc71FjBHkAqKi2dHdikTO+ifEuaWCxEqSxig7ydoXAyn58E5ilPd2Wv+aXUTOU1gBARcXi3veLSMGJLPvFmbKReA3xV30TmLUFu7rnl1EzjMgDQEW1pBv7xSHcfSdxpukXQ6SdYSUq7yStgVKPPBY5It+R7qlI5LZvonTuT/V78b99oxH0uzFyOk4n7nxfNrd9EzVCkAeAChofBt39SDYbN8o27uRGw3eq41qRQT7F70aBbC51Da1nfbMRityeUW2U1gBAgJo0Eg8AGIwgDwAAAASIIA8AAAAEiBp5AKigcTXyuvO+05etxj0oqg418vbZ6V9i1zcxud/Rn6GfMzXyA1EjX1MEeQCoIIL8YHUI8opQNQXtX/1qEORfxjbXXJTWAAAAAAEiyAMAAAABIsgDAAAAASLIAwAAAAHiZlfkZkHWFp7I52diiRb1DHEhFsnxqZNuL5b4nr22Re68kE1dBuqLm10H42ZXcLPrm8Zvc+6hk/ihb7zEPdRjq/671sM5ad15Jh8N+G9QZYzIY2oWONqyevOx7P9EQ/y2rlrXveyaHm1P5fcTL9vvFYk3+hLfbcnqA91xXbaTh4M3AQAAhogXhxxbV/Rfrtux+7n07Lh6ty0XziX/D0JAkEdmFqLb0r1to4Y+aJcoXtR/rD+Wp7bTKfnPBgCgOpy4b/jFaS1ZqLdj+5ys5nhVHUUhyCMT+4JbiLYzer9qRmyUIbrZktWLfgUAAA1zMLiVGzu29yW+zUBZ9RHkMTEL8fYFz3vHMZ14oyOrG74BAECTfMW/5mnBBsrasmrlN6gogjwmYuU0SYjXxYqJJL7IDgcAgPzEEl+lzKa6CPKYyBPZv6kvlb3BVHc414/KhxW6UgAAQNAW+iJ27EcFEeSRms1OM/ua+PFeSP+qXwQAAFOLF/0Ul6gYgjxS0xA/al7kL9j81vpyxUnrrG5gp/P40d93SX/vDX39zP6MUWwGHS4DAgBwyN0bcmzVY7XcSv6bsZhUooJSPTgDsHIVm2PWN4f5TMP7Sl8+3vHt3Nn7eCG9bT2pOOlXDdQSd60nm2u+CQSHB0IN1qrBA6H0De7qX2LXNytLg97RWNw3RWKb2nBP9++fRhLtJf92pqxvh37OTXwglE0XOeqKuW1zur+w4D6Q39/Yc2DeSdYMZgN0RR7jMblUOzzAbiK1+nPfHKisL7jdcPtY9u3JrqN2OPf0IPyBXwaCQ5AfrA5BHsUiyL9pXJA3fka6u745EINk1aMn3EAaox/4pDuJW2Wdpe/Jho0MjduRUFoDAEBKL2TzngV13xwolphja8UQ5DFWMhovZ3xzmD/1r6Xg0h4AYIi3/CsmFo88tmoWeNsvoiII8hgpTUmNN+9fS+Qe+oWBrDTBLwIAmoOwmdG8zFvZ6iiMyFcMNfIYaoIQb3Vz/7Qnm//cN0uRV63sNDqyejKS+JQTpzu3uLLz6xdJO/mefhBWf5l25oNU7F6IJ/L5maSsq3l9q31qf+cRB03X0/9q3zeaZOS2UIUa+XH3N6Bwz/Xn82SxKdy87g86vvEG/VKMrZE/VIVjK9Ljw8BAk4R4oxvSDd1JlPZU1bZcWLZHR/vmQEXubPzsOdd1b8eov2cHCj2hu2R1ln5VZnogsYBl90E08uQI2VUhyPtZvux7wMgwKsH2zwT5eqK0Bm+YNMQb/dafK3Pudg3xY2aEcPf9Qu6sf/QgfZcQ/yrrD5vxwPrHr8pE/3/b9ixAEeIRpGfy0UMnzk5Exz73AijJDMpfUQbOqvCKLCH+JXttcafzGJEdJim3eHpd3+PIWXSKmiIrzfRcOBghON2TrYnnybYQr59taVd2UD9VGJE/lFy565/SbXrRr5oZ7ZSTerL9HV08mqyZjI3oOon/KBL3zK/KTUtim6/+bzE4UiT3aSSbf903RmJEPix8GPjClCH+C07ctgb6/6i/6y/7VTmIXT+5TJ2q3EL//A/yPqHw89db3Ss3+4zlHupB413fSIW6YuShSkG+CpIyxPiq7kMznUxoZ96ak86aXWXwq3Kl7+9cLNGGLnIFrlg/1O35r/nlkQjyYeHDwIG8QnwV6EZdyINydOdmJxF6QERKl3SHbwfoVMY90ARIgyCfmP4+Hne/JfFalitrafgTd9ufMjBSCncvks1UD0kkyIeFGnlMGOJd5WfJaCW1qbnTPdfIch68apL+stBBiAemZ1cONSRffS69Bxm/U1bXryfhm0tFhHj7rlsJnb/6liXEP9K9S8NmpJmek3jPL6JmCPINN2GIv/9V6fyiLlT5Bq5cZk0ZRA+K7/tFpKD9ddIvjtWT3sxriIHQtWT14mPZf6AhOdNght1bdELmFye5kpaWnWC0pHs5mSgg030wdty5ou9Pw39s00sCUFweabBJQ/wJOXZqTzb2qnrDp27MhU2B6aeTe+CbgzzSs+LG3aQ5rqY9rzIH/SW39Cf3cFFleiL09/Tnu745gPtpW+J/7BuN0R9T3tbE0pppy1S0w+7MSWelwDr4aev0b+j7Wz98f/rZ/URfhtbUO3E7LYnv+GYj9MXpviJ+zzffoH3I9JM1xYfRUFlDvF9xOHuLXXatxDzJRc1Sc2jcjZh2ICyiLr/q8trh1ylU5WVOumtjQuue9snX/HJjsM19yc+Kc1X35VnL/h45ael29vHIx/JnZceJSAO8fmC51unrZzcyyLcPrszmf1WhysbdY6RfCoJ8TVFa00DThnhj5StHpLNkAdavmpXPnLjzRYZ4AKiSl8pUHmQM8QdlKhrIFosI8fb+rA7ertxmDPEH+/Wi6vSBOiHIN0weIf6QXea0UWjdiE7PINAf1kvqgWhzO1kFAPVm0zU+lqdW2pjpaoHuq2/4OvhCrjYc1unrcSZrqSH7dWACBPkGyTPEv8xGTJJA7675VcPYg0Ts96X5GUkPQgt2IErz/gAgdFbel5RPRBpwJ681t8EWG3TRffVKEftNe38a4h/oe8s0J7y9vyPSeZf9OjAZgnxDFBXiXxaNn97qX+hO+mtpfvx/DwCNdlimYvfoZCxTeWRlKjbYUtx0kt3byT1EmW5mtYkC7ATjVFE32wJ1RpBvgDJCPAAgX1YHn0OZylIRZSqv1ulPM1/91iJ18EB2BPmaI8QDQFhsusakTOWgDj5LmcqtIstUkjr9/cP3N7GX6vQbNbMMUASCfI0R4gEgHIdlKrFEN7OVqdh0jQdlKstFlKm8WqefrQ6+Le6Dour0gSYiyNcUIR4AwmBlKhqSr05fplLMdI3JCca0dfqts1YHX9STt4GmIsjXECEeAMJwOF2jhuRMz8Kw2cKKLFPxdfB3M9bpH04TvFTUQ6eApiPI1wwhHgCqL5musXt32uka7WF4RezDc6jTv2EPDSyqTh9AgiBfI4R4AKg2X6ZyM5muUZaStRMpdLrGOVldyqlOf4XpJIHiEeRrghAPANX16nSN8bJfPYmDMpWipms8rNPvS3w3a52+zVdfVJ0+gMEI8jVAiAeA6kqma3x6Vxenna4x0/8/zrR1+srq4BeLmK8ewGi6f0DIqhTiW9K1g8zlpDWQjSalOhDp74r94kD6e0rddq2e1V8KH8jqVe1St282Rl6fU57bTl3MSXetL3LVNwfZ0z5p3FOQQ9rmNMD/a90//7pI/FW/alJ7+pf5ob7uJ83cHdXO/Hl9nU+aE7P396m+Pkua5YjF/W39Z8c339AWufSiYXPUJ+VQw6+k6Oe0q8eo0745UtWOvxiNEfmAMRIPANWkYehhLNHfnyLEmwVNVH/TAlpBP9/RPyNriDf2/r7z2u8s/GdUiAeahiAfKEI8AFRTR/7hFX15J2kBQHEI8gEixANAdcUS/ZJfxAxE4j7wi0DtEeQDQ4gHgGqLRX7OL2I2TvhXoPYI8gEhxANA9TmJf+wXAaBQBPlAEOIBIBhFzTIDAK8gyAeAEA8AAIDXMRdoxYUU4vOcl7lq89gyj/xgeX1OeW47dcE88oOFsM2Nm9Nb9xj3WhJf8g1MSPfF/0lfhn7OTtxOXzbP+mYjMI98c/FhVFhoI/F5HhjH7UjUiN/j9loi93qyecevmNq4IK/swSj3/HJjjA4reYYq99BJ/NA3GkH71m6YfC9pDeJ62id/6BuNUd42V1yQ1zeYOlThTfrZ6e54VH5xf67fjf/uG42g29uSviwkrTdNss2NO/4S5KuFD6OiQiynyfPAOG5HkpaNzOgO/VpPtnb9qkxSBHkMkGOoAlIhyNeffnZjgjxeN8k2N+74S5CvFmrkK4ia+PxoPy5bALcD65ys2ogFKqglbuhIEgBgWu6oX0DNEOQrhhBfDBsd60v8g46s/q5fhQrRbZ4gDwAF0X3svF9EzRDkK4QQX7h2JPFvaT9v+XZqbWm/5RdRjG/4VwBA7hxBvqYI8hVBiC+P9vM/6Mjq7/hmKn3pf+4XUYwf+VcAQO5inm1QUwT5CiDEly+S+Ir1u29ixpzEBHkAKIgTR5CvKYL8jBHiZ8f6nTBfDZG4Z34RAJC7mH1sTTGF0AzVLcTnOZ3buOmv1BX/+gbdqJf0fz7jm2M5cef7srntmwMxj/xgo6bYM/lNBcg88m9iHvlBmH6y/vSzYx751+j2xjzyDcWHMSN1HInP88A47Y7kqHy4+Fz6/013b6lu8BkX5nmy62B57fDz3Hbqgie7DhbCNkeQL5Z+diODPE92fdMk21xe3zGUg9KaGaCcpnjP5KOHJ+TIz+vi/0vWjEaZDQAACA1BvmSE+PLsyfcenZD5v6qLf5KsGY0wDwAAQkKQLxEhvnzWfxrmv2P96VeNRJgHAAChIMiXhBA/O0mYP3aKMA8AAOqEGxZK0JQQn+fNY0XcbLMgawuP5emuRvX3/aqRXr4BlptdB8vrc8pz26kLbnYdLIRtbtyNh6qRs1zlRfv2pL4M/Zy52fVN2lnc7FpTfBgFa9JIfJ4HxqJ2JFnDPEF+sBBCVagI8oOFsM2lCPIoEEH+TfqlIMjXFKU1BaKcpnooswEAAHVBkC8IIb66soR5/W9/2TcBANX2tn8Fao8gXwBCfPVNGuYjiX/LLwLAGI79+Wy95V+B2iPI54wQH45JwzwApNGS+I5fxEywT0dzEORzRIgPD2EeQN6OyVdu6j6l55soWUui/+kXgdojyOeEEB8uwjyAPNlTpTvS+g3CPICiEeRzQIgPH2EeQJ6ey+//20g25zrS/rW2yKW2tFb1gHt6Fj8dcb/uxP2hf2sTcyL/ftDvzeunLfGq/jHMqw9kwFygUyLEfynPeZlnNY/tpPPMH9I3wzzyA1RhTu9QMY/8YGxz6SX7s/2Lupj17/GZ/qxrP2wkzXzZ+3siT6/qMTTXKX7txOlFQe+5qphHvrn0ZBhZEeLrh5F5AHXQlgvnNMQ/0MVMIV6T2o0TMr9YVIjXsHjZ3l/eIR5oGoJ8RoT4+soS5mPmLQZQAfYU6mR0NtrW5kKyNj0N8Hfa4j7oy9ZKEccse38tWT08wcjy/m7pPx/7JtB4BPkMCPH1lyHMv+dfAaB0R+XDRT02XY9ERpZYjPDIiTtvJYIvZDP3evXk/XVv2/sTiRf96kk8snp6fX/L+v/rrwFgCPITIsQ3x4Rhft6/AkCprEzlufTuZixTsTr4KydkfqkvmzaKnyurg+9I96q+vwcZTzDs/V2KZGuxJ1u7ySoAhwjyEyDEN8+XYV5+mKwZ6pl/BYBStOXC8rRlKkeks2Q39RZxrDqs049E1vyqibTEXSuyTh+oA4J8SoT45rLPcU7cJd8cZlzQB4BczMnqkq+Dv5mtTMXdPyxTeSYfPfQrc5PUwXfvTlun35PNNY6jwGgE+RQI8ehLvO8XB9IDz1/4RQAoxGGZiu6PNCRnK1OxOvhINpeKKFPxdfo3kzp4WUrWTuSRk9bZour0gToiyI9BiAcAzFpLVi/mUaZSVB38S3X6y371JA7q9K0Ovi8f7ySrAKTh/CsGmCzEyw/npLU2buS2zmIR66+hN1vpxvZ9PZh83zdH0n4cWRPZFpfpYJaVHjzf07/bb/rmAO7P9e836MmJP9OfHyeL6TlxP3US/1/frKxxn5MemFPtYzQEWI3v0IfzTLLt1IVucyd1mzvrmwO4n7ZF/pFvNEZZ25yqxAOhrEwlEqfHoUwzvdh3586cdFaKKKExVgev26n2U+b3d0Pf3/ok708/u5/oy9CSHd1/3mzp39s3G0G/F3Z8Gjp7mvYzD4SqKT6M19ilwRfSv6w7pl/S5l9J1gLIIsdQBaRSlyDvj0X21NMsI9zGpmtcKWqmF6vTjyTW95epxOfgBEN/1rO8v3FBHm/SvibI1xSlNV5y89DqzWSKrINRZUI8AKBUL5Wp2LFoqjKVIkK8vT89Vl7vT1mnb3XwU7y/tn9Faq7jF1AzBHllJTTJTinzyAeAKTiRTJflgTo5nK5RFzNdCdDv0Q0/XWMhVxLsBMPenx/sysLmq8+jTn/OvyIlPeniWSc11fggbzMA6E4pbR08gGJ8w78CjWN18H46yamma+zL1koRky0k00lOPV/9u3aCkc/7Y3Q5A0qRaqrRQb4jqxtZZwAAkCtmekLj+Okar9t0jRnLVB4dlqkUMV1j8v66t+39ZbyZ1er0C5ivPta3hAnx0MKaamyQT2YCiC/6JoCZcgR5NIqvg7eSzixlKgd18Cdkfqmo6STtanVSp5+tDl5/LhVVp6/7i75fQEquwTPq1V0jg7ztpJLpvABUgYaZH/lFoNbacmE5hzKVpfzKVF51WKef9Wr14Xz1+v5GThM6pef+FekR5GtK9wnN05Ku7aCuJq1xXE9jhv7Ij7WzHumrLWOEWNzX9Z92gDqarMnK6YlmfERffT3kwedg87KPnBqrYHP6fr6ib2GSWRP0/boJLgXH9r2cclYG227lc/1dRV+CHhlE9GCeah+j30kLNaOmArTLwg27NHywnX3VNwax74GNfDZNWdtcrtNPTjtdo24P91sSrxU1nWRylfrguJjliawHdfoa4tfKeCKrfnZjpp90P9Wvhx0rGsTN69956L0D+vkw/WRNNfLD0I30rr6M3FmVuVMCBrEDf6wnRLpHXdGfc371JPacuEtFXHo/lNcOv+xQFYI56a71Rw847GmffM0vN0Zo25xdAd6X/ctZR7iVTdeo20Ix3+M85qt3Bw9DLO+JrPrZjQzybZFLL4q9IlA5yc3Sw08S9UtBkK+pxn0YttOyuj/fHEg75Ybd/e+bwMwlB9veepZAryFg57gcO1/EZfjQQlVICPKDhbLNLch333ksP7Oni9ozSQg+JSLIv0k3QIJ8TTWuRl5D/LhRh0fHZZ6ZbFApNuODnVzaFG66B73lV6diI21W82qXzv0qAAXTEP+/9OUd/SH0AChME292HVlf2RK3U8TIJZAHH+jtZPSS/kxSH70Qidy2mSjsUr9fB6AAHbnwL/XlSNICgOI0dvrJYWJxhdxIBOQpkq0Nm7lCxN33q1KxOt3Hsn/b6u/9KgA5iyROVcKAYuh+7j2/CNQeQR4IlI3OR7JpgfxKsia1pb7Ed1vSHVUfDCCz+IRfAIBCEeRf4ySmjhhBsRvy7PHsumjTo05C/7/ubbuR1rcB5MCJ/NgvAkChGhfknbRGTicZSXyOGmKExqZJtac82sNY/KpUbJYDe7pkW1aZpQnID4/DB1CKxgX54/LWuBr4hSfyNOXDooDqsJu0e7K5pierZ7U50Y2wscTXNczf5CQWAIBwNHJarJZ0H+qLTQs2yiW7odAvA0GxQP5E9rdjkTN+VVp7enZ/Nu3TI0OZ0ztEzCM/WAjbXJ5zehfN9hXP5Jn+fGTHxSC0ZPXFmKeYfk/79zd9sxGYR765mlojnyagX2VmD4TKRueZphLAOLavCCnEA3hVI4O8nk1qkB8/bV9f4tuEGYTMtnWmqQQAoJ6aOiKvf/E4zdNbFyzM+GUgSExTCQBAPTU2yFsNsBO54ZujLHVklVp5BM/qfZmmEgCA+mhskDd92VpJU3IQSXyR6flQB0xTCQBAfTQ6yJsTcszu8h57M2AsMTe/ohaYphIAgHpofJC3UKOdYLN7jLPQFyHAoDb68vHOCZlfdCK3/KpUNMwvP5b9Bx3p8hRkAABmqPFB3vg5s22avjHixSeyf9M3gOBNO02lXwYAADNAkPdsmr40N79arbB/kAhQG1mnqQQAALNDkH/JcZlfSxlkLrflQppyHCAYU0xTCQAAZoAg/xIrM2iL2KwcKW5+ja5z8yvqaIppKgEAQIkI8q+x6fmctNJMsbfQl/g6N7+ijrJOUwkAAMpDkB/AZvPQlzTlBUtP5OlVvwzUyhTTVH6BE10AAIpDkB/CygucyB3fHCqWeKUl3TXfBGon6zSVhmkqAQAojh6bMYyNJmoQuaeL7yRrhtMzotN+GkugtvxJq83a9PbBCgBAo0SyRXasEEbkR0hufnU2O83YsoKIh0WhAZimEgCA6iDIj5Hc/OrSlM7Y6D0PyEHtMU0lAADVQJBPoS+b22keFqWW2rJ63S8DtWb3kcxJ+1d8EwAAlIwgn1JftlbSlBPYza8a5tNMXwkE72fy+//uqzL3vn43/odfBQAASkKQn8AJOWazb6R4WFR8lYdFoSmeyu/9cSSbf2OaaSoBAMDkCPITsJtftcPs5tdxFvrc/IqGmWaaSgAAMDmC/IT8FJOXktYo8eIT2b/pG0Aj2MluX7aWnbjz2nyUrAUAAEVgLtCM2tLdjkXO+eYoV+ymQL8MAABQWS3parwZjnnkq4UR+YyOy/xayrm0L7flQppyHAAAACA1gnxGycOixGanSXHza3Sdm18BAACQJ4L8FJKHRbXSTDW50Jf4Oje/AgAAIC8E+SnZTB36kuYJl0tP5OlVvwwAAABMhSCfA7uZ1Ync8c2h7GFRLemu+SYAAACQGUE+J8dl3m5oTTPd3tWOdO3BUgAAAEBmBPmcJDe/OgvzY29+jXhYFAAAAKZEkM9RcvOrS1M6s/BY9m/7ZQAAAGBiBPmc9WVz24nc8M1RljqyuuGXAQAAgIkQ5AvQl62VNA+LiiS+yMOiAAAAkAVBviAn5Jjd0JrqYVFH5cNF3wQAAABSIcgXxG5+1c5NM9q+8Fx6N/0yAAAAkApBvkA92drVl0tJa6SllnTX/TIAAAAwFkG+YJFsbTiRW745ymXmlwcAAEBaBPkSHJf5FX0Z+7Ao5pcHAABAWgT5Erz0sKhxFp7IPvXyAAAAGIsgXxJ7WJS+jK2Xj0VOtaSb5qFSAAAAaDCCfIl8vfwd3xzl6pysLvllAAAA4A0E+ZIdl3krsRk7v3yfenkAAACMQJAvWfr55ePFJ/L0um8AAAAAryDIz4CfX/5K0houlniZenkAAAAM4vwrZqAlq/c0rr/vm2gY/fLZCZ0t7cW6rGfV93qymeYeCgAACtGSrh6Shotki+xYIXwYM3RUPlx8Lj2bzebtZA0ge07cjpP4hr9yAwBAaQjyYaG0ZoaeyUcPnbTsYVHAoYVY4pVI5HZLVh+05UKa5w8AAIAGIsjPWF8+3mmJu+abwEvixViim23p3mY6UgAA8DqCfAX0ZHNNxI2dkhLNZA8J60t8tyPdq0xJCgAADhHkK8KJ/Bu/CAwUiaw9lqcW6E/5VQAAoMEI8hUxJ+3f1ZfPkxYwTLxo9fOMzgMAAIJ8RdiNr21xvyji/o9fBQzF6DwAAGAKoYqxUdbHsm9TUr6TrBnMpijsy+ZZ30RgbOrRnvRsdN1uYl3QT3Q56zMFbFs4LsfO21OD/SoAADJh+smw8GFUkI2yWvmEbw7lpHXWZr3xTQTOPnfde67rz0m/ahJ7uj2cZ3sAAEyDIB8WSmsqyB4ElGZKylhi6qRrxD73vmydOiKdd3UvOekTXheSqSpXb7JNAADQDAT5ipqXY+v68ihpDRMv7stT++9QI3a/hAV6XbykPxNNS6ond8uPZf9BS1Yv+lUAAKCmCPIVZfXO+uGMfeprJPFFbnisp0i2Nk7I/KITueVXpbWgkX7DHiRltfh+HQAAqBmCfIVZqUWaEBeJu+4XUTN2QteXrWW7H0KbE47Oy6nn0rvL6DwAAPVEkK+44zJvo/JjAly82JIuJTY1ZjexMjoPAABeRpCvOBuRddIaW2KjLs/Jqk1liJp6bXR+zP0Tr/Kj8w/0hO+yXwUAAAJHkA+AjcammcWkLzElNg3gR+eX0sxsNMC6hvm7nPQBABA+gnwg5qSTosRGNNx11/wyasxG53uyuaZf4NPanGh0Xi3pSd9dRucBAAgbQT4QNiWhvqSpg79MLXRz2A3R047OM+sRAMCQH8JDkA+ITUeYosRm4YX0KLFpkFdH5919vzqtJXuKsIZ5Hi4GAA3Xk97IIJ+mzBflIsgHpiVubOmM3djYltU0N8iiRmx0PpJNq32/kqxJT8P82mN5yug8ADSYHgu4fyowBPnAvJDNe/oyNqhpmP9XjLA2UyRb621xH0w+Oh8vMjoPAI02bt+/519REQT5AFlQGx/S4vkn8nTLN9AwdsI37eh8Wy4s+1UAgEZw5/zCQLHIrl9ERRDkA9WSOEWJTfyr3LjSbHbSd0Q6705e1xgvxhLdbMvqTUbnAaD+ktLKeGRm0NBoVQGoEIJ8oKwe2on7A98cqif93/CLaCib8agvW1b7fkl/xk1h+go9GVx+LPsPGJ0HgHqLRcZNSfyZZQ+/jIogyAfsqHT+mV8cKpL4u4yowtisR0eks5Rh1oEFRucBoL7sIYE2UYZvDqTHjh2/iApp+1cE6IX84M+cfNtGSr+RrBlo/oW8+Gokn3zft9FgPfnBXiyfbDv5lo3M/4L+HD34F+l882fy/EPd5p7p7/gjvw4AEDAboHkmL24fLI7QErmkWcKeaYMK0RMshMzOou0pnb45lM1i4me8AQ7YzvuJ7G/HImf8qtR0x7E7J53z/kFlAIBAtaV7e9xovE2w4SdQQMVQWhM4C+dpnuoZSXzVLwIH7EFSfdladtI6q80Ja+fl1HPp3W3J6kW/CgAQmLasXh8f4i0sjp9gA7PBiHwN2MjqY9m3kdG3kzWDOXHn+7K57ZvAFxidB4DmsBntnkvvpi6OHWXXffwdP2ECKogR+RqwkVUN6Wmmo+RBPxjotdH5R8nadPzo/IOWdMfNeAAAmDG7kmpXVHUxTanMZ3PS4UnxFcbNrjURyyf3WvKt07o4ag7Yo9z4ilFi+a+fvi1/Z9u2Ew3o3/Gr0zrl5FvLHfn2H+k29iO/DgBQAW25cE730Tu6p/81baaa6KAt7heey8ef+iYqiNKaGuHGV+TJHg4SiVgp1jvJmomsR7I18VNlAQD5sgAfS7yuAX6iB0RSjhsGRuRrxEZB2/Ltr6UYSf1mLJ/c8MvAQDbN2LSj82351p8wXRkAlO+lEXgrjZmorNYm0dAQ/7u+iQpjRL5muPEVRUhG592GHhDe96tSa4no/+d4kAgAlML9ciSRhfdRz5gZSoPhjb5sURcfCIJ8DbVldSWW+LpvDrN3QubftZscfRsYqyXddX3hplYAqB+bhtjKIjeSJkJAaU0NceMriqLb1m5Hvn0rFmdPhc002gMAqBabYvKIdH75hXxMJggMI/I1xY2vKBqj8wAQPEbhA8c88jXFE19RNN3xrx+Rzrs2kuNXAQACYbXwug9fIsSHjRH5GuPGV5SlJV17IJmN0I/c1gAAs2UBfk466zyNux4I8jXHja8oiz3y+4X0tmORk34VAKAiCPD1xM2uNceNryhLT36wp9vbdku+/Uibts2lenIgAKA4TtwfHJHOr7yQj7dtP+1XoyYYkW8AbnxF2XxZ14ruYE4dNAEAqcTivq7/tMG3qQZDdP/7X47K3OpT+b0/9qtQQwT5hujI6kYk8UXfHEg3ht2+bNlIKgAAKJE9iTWWeN2H+Mz0WE4JTYMQ5BuCG18BAKgeAjymQZBvEG58BQCgGgjwyANBvmHa0t0dN6uIzT/fk02bThAAAOSIAI88EeQbhhtfAQAoHwEeRWD6yYaJ5JMfteXbX4tFvuNXDfPNWD654ZcBAEAGFuCdfGtHA/yKNjPP4mUB/oh0zjKNJF7GiHwDceMrAADFYgQeZSDINxQ3vgIAkD8CPMpEkG8wbnwFACAfBHjMAkG+wbjxFQCA6RDgMUvc7Npg3PgKAEA23MSKKkg9It+R7ikNfJf1Z0mbtsHe0//5YIPT13vRS8t6RnmfM8rRbDQ8Evd+LNHBGXxL+9T3reir9e/Bsvbnrr2aIvq57je+VqWf6+71ftbtRV+T0Sn6OT/0czmy9LOuf6XP6efxQu3n0Ebg2W+U4/V+HpI39qw/9edKT7a+6O9p6O8az0K8fqC3fTMl91B/ub7JeOe4zN9p+g2TFpifyOdntD/shOjU4ZdoetP3c51ufK1yP9fJUflw8YVEJ5N+jpd1le2kcuAetrSP9bPbpZ9f6edl7WfdnvPqZ7mnBxm7R4Z+VsX1M9vzy0LfnkMJ8OyfyzFt3tBt9nQeYT5VkE9zU2QKB1+0jnSuNeWszr5MPeld1JMg22EdnJWVwGrZd45I58Yk/Rzyja8h9XPIZtHPdvIUi9s5IcduNOWgYQMn+nImEqcH4LxOREdrYj/b6JmGnHP0c7HqsD2HEODZnsuR53FQ++9OX7bs90xFf894Len+RF/yOnPWP9Rtz0n7Sl0DUFKG5OyLb3VzMzNJP9tOILQbX0Ps5xAl/XxQVjf1Dmca9HMp9rSfd+jnwtHP5Ziqn0MI8Oyfy5GUzcjFnPPGXiRbX/PLmaUN8rqN5M/O5lriLtVlRpSqfKFeZzuylsiVcf3ckdWNSOKLvjmQfWZ6BnnaN2eiwv28rf18je25WHU7YGhYWBaJ9ABBPxeJfi5HHfqZAJ9d3bbnovtZg3yqHD5Kql+QU2nNUBp+NuZl/kqol2aSOqmnV2c9MjzOuH6u+o2vdennqkvqK/vWz3pArrT1EzJ/Lex+7l2v2oF4APq5HPRz8axvN4b1cwgBnv1zOcrIG7qdlFdaY2fYsUQ3fbMo+mG79Ug2r/l2EFqyelG/9PrFz6/0qGB7Tlprffl44HSSVb3xtSXdy/pi9fm16OeqCq+f7SZkd0n7ecevqDx/wmxXvmy/EQj6uRz0czle7ecQAjzbc3nKynWaEc7m0Tepgrzxl8vWihyZ9+ym2Et5TctTFLvcEonTwFvOTSV50w9+V38GTn9UpRtf69DPIZSP0c/lSAZF4qsh97MGlfNVv2xOP5cj9H7Wnv5U/zGv7//nknY2+nkVFuBNHbbncI6Dov1c7GQO2h93NEVt5HWCo78vG3+H9MHZSixuUZcX9YNaSO7kjd8/+I+moGdx28fl2KWqXZbJ97KWu68nLbuRxHZDjp65xgc7AV3eO9zgX+5n7VvbuBaSfj7489+x9dMY1M9VuPG1bv1c1XKbfC+Hj+9n21HaqznsZ90J6f7j4M+nn1Nx93Ufe3AAmFU/q0peNqefy1HDfs5E30OhAZ79czmSfi4vb+RNP6P8+U7RD/5wbs3MG4B+2NUpt8mh7OCRdviu/p12NTzvTLsxv9bPtgGOrG0f4Y1+nuWNr3Xu56qU2+R0mdb3c2vnuLy1m2M/L/v9Bv2ceKQnlTvxwfacTz8/l96yfnaH++eM/WwHqWpcNqefy1Hvfk5P/6xCAzz75/LkmTfmpL07i6to+ucXz87y9INf15+sZTkzLbex9z9N2YF28h39WS/6/edQ/vRFP/sdiW2QI7+seoDJ7cbXcPp5dUXf40rWftb3OLSsqQy6nUxVD1pmPyfvM9tAQA36+Zb+bITQz7MsA6Gfy5H0c7Shi5kCj77/G/qzXfV+HsX+DkUGeNOk7Vl/ZrZ/DiVvpKHvozzTBvqyP3j7Qmkw1o314OxzYrP6oPPqZ18ypRv6SFPf+OoPEHZGbJfyJhZ6P5e5PU95gLjRErdR1OXBYZrYz0WHhUGSA7ONTGUrjaSf09H3PdWAC/2czrTb88vK+DuE2s/kutnT91M+25H5M/uMZ8zONtSNtnZo3qEiqQ8/2CBtB5DpC6UetURWZv1BT9/PB08vndef9w5aQ2i4m/jGV/r5S7Yj05OmnSPSvpX3Tjiffraav3ht9v18MAJk/Zzpkq71s26t23PSulNMP8dn9E+xqzVZD8SVOEC0pGvfZQ0U9exn/X/ZnsfIa3vWY8Na2Sf+r8the/7P+ls+YnseLY/tudrHwWrkjUG072bDl27YF8zqk6Zg9YOH9UmTf9GSuq9IP2Crfz640SFrnZT5TH82ItmynUYl5NfPo4278ZV+TuvL7fm4vHVr0isdL/WznlzENuIwbT+vaz/bzrkSrJ/35am+p9H3b4x32M/xznGZv5Oln59L/4z+Dtuep+5np4FnFs9mGMb6+Ynsb8Qi5/yqjOjnUdiey1HX7Vl/ar5/nvo4WMu88Trtq9lKOry3nfWyzDDJRpDQ5YOAqX/GF6UbWS+rDKN/xq056azlfSaZl6L6+SV7erZ6sOM+7Gd9tS9PpnKZYZraz69vz7E47dtkZKGgfr6hB6q1SXegZbERFj1Y2IE56H62q1nzcmy9qv087WXzYejnV5WxPevv3tWArX3c7O05Evd7+rf/pl+Vi7L7Wf889s+v5bqC+rnSeeOQvs9qyKEMZFYqe7llkHD7uRqXD9Oin8sx7eXcWdEdbyXKDtKin8tBP5ejLd3/oMHv7+piZTJQGmzPpQkq11VuI25J1y5fWIlC1T/4yl9uGcYuf/kykFD6uVKXD9N6qZ8LLWvKSdD9nM/l3FJUruwgLfq5HPRzOayfn8jTLQ2av+pXVVnQ/RzYcTC4XFfJs1FfnmCXZc74VZWinVbpy1pp0c/lKKGsaSpVvxyeFv1cjqIum+eFfi4H/VwO9s/lCDlvVDLIH/IfvNVnTnmDSj7sg57F9E5F8zsymw6Nfi6QrzdeoZ+LVVRdd0af6YF4uyPtDfq5UPRzOejnctS9ny1vVGIAsQ7HwUoH+UMzDvSfaSft1DHwvG7W/VzXHdfrZt3P+rNxQuY3Qh/hGYd+LseMBwLo53LQz+Vg/1yOWuWNIIL8y+xsTt/2cnQw68z0D3oYzG74s7uj451QbnbIm92s6SQ+VXQ/Wx9bX9PP9HNRklrYz08l/XwwFVkhNyDrzvSOHpR22+J2QrkZLU/0czno53LQz+XhODid4IL8y5Iv2lP9gh3Mx7qoX4Ysl8RsxN2+PHpW1to5Lm/t1v1MeFL0czmSEYq+7cim7mcnzqb0szl46efX0M/leKmfLQQt0M/FoJ/LQT+XI8/9s742Im/o37We7PJYLLHNKyp6lncwt6ieiR2c7eqXaK+pZ755e72frW/1zPrgUhX9nJ/kSlSCfi4O/VwO+rkco/q5I52HdS9jLAv9XA7yBgAAAAAAAAAAAAAAAAAAAAAAAAAAAAAAAAAAAAAAAAAAAAAAAAAAAAAAAAAAAAAAAAAAAAAAAAAAAAAAAAAAAAAAAAAAAIDJiPx/yrawYEwjr2kAAAAASUVORK5CYII=;" parent="1" vertex="1">
          <mxGeometry x="230" y="205" width="288.57" height="155" as="geometry" />
        </mxCell>
        <mxCell id="wS7xLxOmRzhV0gcM0dTc-27" style="edgeStyle=orthogonalEdgeStyle;rounded=0;orthogonalLoop=1;jettySize=auto;html=1;exitX=0;exitY=0.5;exitDx=0;exitDy=0;fontSize=22;fontColor=#767682;strokeWidth=4;" parent="1" source="wS7xLxOmRzhV0gcM0dTc-12" target="wS7xLxOmRzhV0gcM0dTc-1" edge="1">
          <mxGeometry relative="1" as="geometry">
            <Array as="points">
              <mxPoint x="761.02" y="480" />
              <mxPoint x="761.02" y="405" />
            </Array>
          </mxGeometry>
        </mxCell>
        <mxCell id="wS7xLxOmRzhV0gcM0dTc-12" value="" style="shape=image;verticalLabelPosition=bottom;labelBackgroundColor=default;verticalAlign=top;aspect=fixed;imageAspect=0;image=data:image/png,iVBORw0KGgoAAAANSUhEUgAAALcAAADSCAYAAAAIV1F2AAAAAXNSR0IArs4c6QAAAARnQU1BAACxjwv8YQUAAAAJcEhZcwAADsMAAA7DAcdvqGQAAA0LSURBVHhe7d1biF1XHcfx/z5n0iR0TAdbaiq1kwdFHxST9EELVuqLUERILIoIQguTIVCs0VqoVEl9EKs+2D4Imgy2gg99smkLFvoUq3h5SSI+ttJGRSteksbETOZytv//OWun61z2OWvvvdY+6/L7wGLO3k3S5sxvvpxJhg4BAEBgMvUWHNpBR/b3KP9BTnSPXPOTfnoHLTywTj96o/8DwImueguOdGjlOI/6WX64b3Cnb9829Y5ldJByOvNLdQ8sQ7kdkVpvU/40P9w/uFPqXJeyBzbp5Dl1DZag3A5otd47uDPVXv6xR1Fx+1BuiyrUugwqbhHKbUnFWpdBxS1CuRuyUOsyqHhDKHcDlmpdBhVvCOWuwWGty6DiNXTUWzAkteZhn+WHFYed/YEHekCOPFY3TckH01n5d6trMIByG2pY62/1aO1x9biPhyrXdcZ67gZaOIy/3ZwNr7kN1H9t3a/1vdu0Jj93CL+OPr1Adz6fU3YXX1b5dfduU+/+jO5c51/j9+oeTIByT2G71mXqVpzfefgalSlQ7hIual2mQcXla1RQ8RIo94i2al0GFbcH5dZ06MiXc8qf4Yf6V/AZqF7rMqi4PSg320VH923S1tP8MqT/9dYVNa51GVS8meTLLbXm4klxPzC4Y8percug4s0kW25fa10GFa8uyXL7XOsyqHh1SZU7tFqXQcXNJFPuEGtdBhU3E325Y6l1GVS8XNTljqnWZVDxclGWO/Zal0HFh0VX7hRqXQYVHxZNuVOtdRlUPJJyp1zrMqh44OVGrc2kWvFgy41am0u14sGVG7VuJqWKB1Vu1Lq5lCoeRLlRazdir7j35Uat3Ym94t6WG7VuV4wV97LcqHX7Yqy4V+VGrf0QS8W9KTdq7Y9YKj73cqPWfgu54nMtN2rtv5ArPpdyo9ZhCq3irZcbtQ5XaBVvrdyodVxCqHgr5Uat4xNCxZ2WG7VOg68Vd1Zu1DodvlbcerlR67T5VHGr5UatwaeKWyk3ag2TzLvijcuNWkOZeVe8drlRa6hiHhWvVW7UGqqaR8UrlRu1BhvaqrjxuKXW/PEn/1FLgzumpNZ0P74pP+jUt0Q8xQ+XB3eMXeRNPd6jk0+p61Izx41agytLdGzpMl3hoeYczmpMKj513Au0+miPeo/xw8XBHVOoNZhboJV7ekTy/T+rVvxyhzrf3qITT6jrIRPHvYtW7t4gern/sDrUGiprUnG2fgPRJ9dp7Vfqum9s3Ev04PIluvYnfljxT1JQa2iuQcW399DiLRfpSX5NPjA24E368I/5zYcGV8ak1p/v0Zk31TVALbyhN26ijz+zSZu7+fO8j6rbJjr8c67wz39FXVNHvb0up+wj6qGJ813KDuBlCNgk9d2ik8d4nJ/gy7cGd2fj4t+nHvaNjTujvEp9l/kXPC6vl9Q1gBWyKQ6tvP6+aXDHyNDniBPGnVX6W6Cc8kOX6PLrXVo9pG4BNCJbkk3JttQtIxzmoe2OjZs/W73+grwC/ijrPdelI8+h4lCXbEc2JFvqX1bEr9GH/sx7bNxNoOJQV91aT2N13AoqDsaa1noaF+PuQ8VhFhe11jkbt4KKwxiXtdZVHndG9FN+c35wZQYVh0KDWp9X2zNWedzyGekeWtzfoWzmlxyOQMUT1qTWsjXZ3OifhsxS62XJyN8goeIwVZNay8Zka/rXjJiqNe7CFq2dRsWhjI1ay8bUrcoajVug4jDJvGqtazzuAioOYt611lkbt0DF0+ZDrXVWx11AxdPiU611TsYtUPE0+FZrnbNxF1DxOPlaa53zcQtUPC4+11rXyrgLqHjYQqi1rtVxC1Q8TKHUWtf6uAuoeBhCq7VubuMWqLjfQqy1bq7jLqDifgm51jovxi1QcT+EXmudN+MuoOLzEUutdd6NW6Di7Yqp1jovx11Axd2KsdY6r8ctUHE3Yq21zvtxF1BxO2KvtS6YcQtUvJkUaq0LatwFVLyalGqtC3LcAhU3k1qtdcGOu4CKT5ZqrXXBj1ug4sNSrrUuinEXiopnRM+rW6aiqDhqPSyqcQspzjatHcqoc5gvjb+figi54qj1uOjGXdimE6e4RPtirzhqXS7acYvYK45aTxf1uAuxVRy1NpPEuEUsFUetzSUz7kKoFW9Sa/m9plJrXXLjFqFVvEGt35Lfo/xeU6m1LslxF3yvuIVa75Pfo7qVnKTHLXytOGrdXPLjLvhScdTaHoxbM++Ko9Z2YdwTtF1x1NoNjLtEWxVHrd3BuGdwVXHU2j2M24DtiqPW7cC4K7BRcdS6PRh3RU0rjlq3B+OuqUHFjaHWzWDcDTSp+AyotQUYtwU2K45a24NxW2Kh4qi1ZRi3ZXUqjlq7gXE7MFLxqVBrdzBuh0xKjFq7g3FDtDBuiBbGDdHCuCFaGDdEC+OGaGHcEC2MG6KFcUO0MG6IFsYN0cK4IVoYN0QL44ZoYdwQLYwbooVxQ7QwbogWxg3RwrghWhg3RGvSuHvqLUBohrY7NO5ddPRGouxz6rLMw7tp9WPqMUAr1OYeHlyVye7jDV//X0MPjXuDtpaJ8lvVZZnFa9R7pUtHfq6uAZySrcnm+OHi4E6ZfCdv+L3qYuxlyX/5/I9P3r8ql+WUH+7QygVUHFyRbcnGZGt8mQ3ulpLN/ovPm/0rNjruK3xe47PJZ9bAxRIqDi5ota7yHSjkA+Da4OH4uC/weYTPz/jIR4HJJ5eoOFhTsdajdvPZMXg4Mu4erUmtz/F5lM9TfP7Rv20GFYdGatZayG5/wudTfC7LDTFa7mLgUu0TfJ7lI6/BTaHiUFnDWm/zuZnPE3xu5COfN/aNjVuogf+b/z1rHcq+zm83Bv/EGCoORurXOtvibd7Lb5f54iqfv/BuX1Pb7TP6KFmiB++4RNfkf7V7YHCnkos7qfPpq3Ti1+o6KVyk60/2JPzOqFqqKEitedQv8sOqL0HE2T208/BF+uF5ueDnuMPP49jL50pP7A5aObZN2ff5Jc6CumUqzyg7tU0nP6Ouk4Fxj5Na80sQ+ZaFFX/v2VaX8kc2ae1JdWOqyk8sV3yZKy7fJBQVN4Bxv81mrU1MfM09jfzi/A452CX6inwkqdum8Fo8UU1eW8vWZHNVhi0aVaNpxfkjcX/V/+DQpF7utmutq1xuXdOK8wfG6wu0+h11DZGZR6111qrRsOJ/54/Qu2KseIrlnmetdY3KrWtY8dtQ8TjMu9Y6J9VAxd+WSrl9qbXOWrl1qHhafKq1znk1Uq94zOVW71v5Qjtvaq1zUm4dKh4neZ/I+4YfelVrXavVSLHisZVbvQ9/yw9vG9ypxHmtdc7LrUPFw6bVuuKw26u1bm7VSKXiMZQ7pFrrWi23DhUPQ2i11nlRjZgrHmq5Q621bm7l1qHifgm51jrvqhFbxUMqdwy11nlRbh0qPh+x1Frn9WfqMVTc93LHVmudd+XWoeJuxVhrndfl1oVacR/LHXOtdV6XW4eK2xF7rXXBlFsXUsV9KXcqtdYFU24dKl5NSrXWBVlune8Vn2e5U6y1Lshy61DxyVKttS74cut8rHjb5U691rrgy61LveKo9bCoyq3zpeJtlBu1niyqcutSqThqXS7acuvmWXFX5UatZ4u23LrYKo5am0mi3Lq2K26z3Kh1NUmUWxdqxVHr6pIrt66NijctN2pdX3Ll1vlecdS6maTLrXNV8TrlRq3tSLrcOl8qjlrbg3JPYLPipuVGre1DuSdou+KotRso9wxNK85n1mBNfswkqPUMGLch9d2Tv6d99+Q5PXdSa/PvopsyjLsCVXH5BrFlFXf9fKLWFWDcNXDFH+KKf5crvkPdKp7H0efT0vOLWteBcdfEFb/jEm38ggf+Pr6U51EfuH5dGL02hVrXVPcJB2WBVo/3qPfV/sPBnz7J0QdenIL+eArUuinDJxqm4YrfzhV/iSv+br6UkXfV0YdePC5Me+6l1oe41n9W11ADxm0RV/xrXPGH+OFOPvJ6vBh5cWaMHLW2SZ5wsGQP3X1mgzZv5Ye389nks82nx0fof1Mpj2XUxbD7bzPKXlikxW+u0+82+nehEYzbog36oIz2j3zew+cdfIqBFyMv+6t4+WfyCeOXrtHG33I6U3xAQAMYt0U8yjyjg1f44Vk+8nUi7+/fJpK/wpfBjg5cir3O5wU+n+3R2qsYtj0YdwNdWl3I6EDOg1R3hgZ+gc/LfOQTzJv5jL5MEZf5PMbnGzzsS/07YA3GXVOXjnRzyuWTQxn39Rp3aCXjocrAiyH/ho98/cgtfERR8Ff5fJF/7EuotRvaZ+pQlQyZ38gpxi1j383nKh+5904+Umf5BHEPny/wkZG/yOevPOx/8ltwBOO2RA29+GM+eSmyxePd4vsy9hv4yGtrGfm7+Mjgr0jh+S04gnE7wIOWkRdDl5cn8lYq/h8+PYy6HRi3Yzx0qbi8ppZB7+Ij11JtvM52iuj/bZ8WddGhPpgAAAAASUVORK5CYII=;" parent="1" vertex="1">
          <mxGeometry x="874.6700000000001" y="448.5" width="52.29" height="60" as="geometry" />
        </mxCell>
        <mxCell id="wS7xLxOmRzhV0gcM0dTc-17" value="&lt;font style=&quot;font-size: 22px;&quot;&gt;&lt;b&gt;Grand block 1&lt;/b&gt;&lt;/font&gt;" style="text;html=1;strokeColor=none;fillColor=none;align=center;verticalAlign=middle;whiteSpace=wrap;rounded=0;fontSize=24;fontColor=#767682;" parent="1" vertex="1">
          <mxGeometry x="578.39" y="330" width="166.68" height="45" as="geometry" />
        </mxCell>
        <mxCell id="wS7xLxOmRzhV0gcM0dTc-22" value="&lt;font style=&quot;font-size: 27px;&quot;&gt;&lt;b&gt;Ship under construction&amp;nbsp;&lt;/b&gt;&lt;/font&gt;" style="text;html=1;strokeColor=none;fillColor=none;align=center;verticalAlign=middle;whiteSpace=wrap;rounded=0;fontSize=22;fontColor=#767682;" parent="1" vertex="1">
          <mxGeometry x="187.06" y="160" width="391.33" height="30" as="geometry" />
        </mxCell>
        <mxCell id="wS7xLxOmRzhV0gcM0dTc-23" value="&lt;b&gt;Block 1&lt;/b&gt;" style="text;html=1;strokeColor=none;fillColor=none;align=center;verticalAlign=middle;whiteSpace=wrap;rounded=0;fontSize=22;fontColor=#767682;" parent="1" vertex="1">
          <mxGeometry x="856" y="418.5" width="83" height="30" as="geometry" />
        </mxCell>
        <mxCell id="wS7xLxOmRzhV0gcM0dTc-33" value="&lt;ul&gt;&lt;li&gt;&lt;font color=&quot;#ff3333&quot;&gt;&lt;b&gt;Engineering&lt;/b&gt;&lt;/font&gt;&lt;/li&gt;&lt;li&gt;Panel Production&lt;/li&gt;&lt;li&gt;Assembly&lt;/li&gt;&lt;li&gt;Outfitting&lt;/li&gt;&lt;li&gt;QA/QC&lt;/li&gt;&lt;/ul&gt;" style="text;strokeColor=none;fillColor=none;html=1;whiteSpace=wrap;verticalAlign=middle;overflow=hidden;fontSize=22;fontColor=#767682;" parent="1" vertex="1">
          <mxGeometry x="830" y="519.5" width="260" height="172" as="geometry" />
        </mxCell>
        <mxCell id="wS7xLxOmRzhV0gcM0dTc-34" value="Block 1 Activities" style="text;html=1;strokeColor=none;fillColor=none;align=center;verticalAlign=middle;whiteSpace=wrap;rounded=0;fontSize=22;fontColor=#767682;" parent="1" vertex="1">
          <mxGeometry x="843.96" y="508.5" width="180" height="30" as="geometry" />
        </mxCell>
        <mxCell id="wS7xLxOmRzhV0gcM0dTc-36" value="" style="rounded=0;whiteSpace=wrap;html=1;fontSize=22;fontColor=#767682;fillColor=none;" parent="1" vertex="1">
          <mxGeometry x="833.9599999999999" y="508.5" width="212.04" height="30" as="geometry" />
        </mxCell>
        <mxCell id="wS7xLxOmRzhV0gcM0dTc-39" value="&lt;ul&gt;&lt;li&gt;&lt;font color=&quot;#ff3333&quot;&gt;&lt;b&gt;Engineering&lt;/b&gt;&lt;/font&gt;&lt;/li&gt;&lt;li&gt;Assembly&lt;/li&gt;&lt;li&gt;Transport&lt;/li&gt;&lt;/ul&gt;" style="text;strokeColor=none;fillColor=none;html=1;whiteSpace=wrap;verticalAlign=middle;overflow=hidden;fontSize=22;fontColor=#000000;" parent="1" vertex="1">
          <mxGeometry x="550" y="500" width="180" height="110" as="geometry" />
        </mxCell>
        <mxCell id="wS7xLxOmRzhV0gcM0dTc-45" value="&lt;font style=&quot;font-size: 22px;&quot; color=&quot;#767682&quot;&gt;Grand block 1 &lt;br&gt;Activities&lt;/font&gt;" style="text;html=1;strokeColor=none;fillColor=none;align=center;verticalAlign=middle;whiteSpace=wrap;rounded=0;fontSize=27;fontColor=#000000;" parent="1" vertex="1">
          <mxGeometry x="578.39" y="456" width="147.02" height="65" as="geometry" />
        </mxCell>
        <mxCell id="wS7xLxOmRzhV0gcM0dTc-46" value="" style="rounded=0;whiteSpace=wrap;html=1;fontSize=27;fontColor=#000000;fillColor=none;" parent="1" vertex="1">
          <mxGeometry x="567.85" y="460" width="173.17" height="60" as="geometry" />
        </mxCell>
        <mxCell id="wS7xLxOmRzhV0gcM0dTc-47" value="" style="rounded=0;whiteSpace=wrap;html=1;fontSize=27;fontColor=#000000;fillColor=none;" parent="1" vertex="1">
          <mxGeometry x="567.85" y="520" width="173.17" height="109" as="geometry" />
        </mxCell>
        <mxCell id="wS7xLxOmRzhV0gcM0dTc-48" value="" style="rounded=0;whiteSpace=wrap;html=1;fontSize=27;fontColor=#767682;fillColor=none;" parent="1" vertex="1">
          <mxGeometry x="833.96" y="538.5" width="212.04" height="140" as="geometry" />
        </mxCell>
        <mxCell id="xIAL2lGmnQFQKnVaAjIA-2" value="" style="endArrow=none;dashed=1;html=1;dashPattern=1 3;strokeWidth=8;rounded=0;" edge="1" parent="1">
          <mxGeometry width="50" height="50" relative="1" as="geometry">
            <mxPoint x="651.39" y="730" as="sourcePoint" />
            <mxPoint x="651.39" y="640" as="targetPoint" />
          </mxGeometry>
        </mxCell>
        <mxCell id="xIAL2lGmnQFQKnVaAjIA-3" value="" style="endArrow=none;dashed=1;html=1;dashPattern=1 3;strokeWidth=8;rounded=0;" edge="1" parent="1">
          <mxGeometry width="50" height="50" relative="1" as="geometry">
            <mxPoint x="910" y="770" as="sourcePoint" />
            <mxPoint x="910.46" y="691.5" as="targetPoint" />
          </mxGeometry>
        </mxCell>
        <mxCell id="xIAL2lGmnQFQKnVaAjIA-4" value="" style="shape=image;verticalLabelPosition=bottom;labelBackgroundColor=default;verticalAlign=top;aspect=fixed;imageAspect=0;image=data:image/png,iVBORw0KGgoAAAANSUhEUgAAALcAAADSCAYAAAAIV1F2AAAAAXNSR0IArs4c6QAAAARnQU1BAACxjwv8YQUAAAAJcEhZcwAADsMAAA7DAcdvqGQAAA0LSURBVHhe7d1biF1XHcfx/z5n0iR0TAdbaiq1kwdFHxST9EELVuqLUERILIoIQguTIVCs0VqoVEl9EKs+2D4Imgy2gg99smkLFvoUq3h5SSI+ttJGRSteksbETOZytv//OWun61z2OWvvvdY+6/L7wGLO3k3S5sxvvpxJhg4BAEBgMvUWHNpBR/b3KP9BTnSPXPOTfnoHLTywTj96o/8DwImueguOdGjlOI/6WX64b3Cnb9829Y5ldJByOvNLdQ8sQ7kdkVpvU/40P9w/uFPqXJeyBzbp5Dl1DZag3A5otd47uDPVXv6xR1Fx+1BuiyrUugwqbhHKbUnFWpdBxS1CuRuyUOsyqHhDKHcDlmpdBhVvCOWuwWGty6DiNXTUWzAkteZhn+WHFYed/YEHekCOPFY3TckH01n5d6trMIByG2pY62/1aO1x9biPhyrXdcZ67gZaOIy/3ZwNr7kN1H9t3a/1vdu0Jj93CL+OPr1Adz6fU3YXX1b5dfduU+/+jO5c51/j9+oeTIByT2G71mXqVpzfefgalSlQ7hIual2mQcXla1RQ8RIo94i2al0GFbcH5dZ06MiXc8qf4Yf6V/AZqF7rMqi4PSg320VH923S1tP8MqT/9dYVNa51GVS8meTLLbXm4klxPzC4Y8percug4s0kW25fa10GFa8uyXL7XOsyqHh1SZU7tFqXQcXNJFPuEGtdBhU3E325Y6l1GVS8XNTljqnWZVDxclGWO/Zal0HFh0VX7hRqXQYVHxZNuVOtdRlUPJJyp1zrMqh44OVGrc2kWvFgy41am0u14sGVG7VuJqWKB1Vu1Lq5lCoeRLlRazdir7j35Uat3Ym94t6WG7VuV4wV97LcqHX7Yqy4V+VGrf0QS8W9KTdq7Y9YKj73cqPWfgu54nMtN2rtv5ArPpdyo9ZhCq3irZcbtQ5XaBVvrdyodVxCqHgr5Uat4xNCxZ2WG7VOg68Vd1Zu1DodvlbcerlR67T5VHGr5UatwaeKWyk3ag2TzLvijcuNWkOZeVe8drlRa6hiHhWvVW7UGqqaR8UrlRu1BhvaqrjxuKXW/PEn/1FLgzumpNZ0P74pP+jUt0Q8xQ+XB3eMXeRNPd6jk0+p61Izx41agytLdGzpMl3hoeYczmpMKj513Au0+miPeo/xw8XBHVOoNZhboJV7ekTy/T+rVvxyhzrf3qITT6jrIRPHvYtW7t4gern/sDrUGiprUnG2fgPRJ9dp7Vfqum9s3Ev04PIluvYnfljxT1JQa2iuQcW399DiLRfpSX5NPjA24E368I/5zYcGV8ak1p/v0Zk31TVALbyhN26ijz+zSZu7+fO8j6rbJjr8c67wz39FXVNHvb0up+wj6qGJ813KDuBlCNgk9d2ik8d4nJ/gy7cGd2fj4t+nHvaNjTujvEp9l/kXPC6vl9Q1gBWyKQ6tvP6+aXDHyNDniBPGnVX6W6Cc8kOX6PLrXVo9pG4BNCJbkk3JttQtIxzmoe2OjZs/W73+grwC/ijrPdelI8+h4lCXbEc2JFvqX1bEr9GH/sx7bNxNoOJQV91aT2N13AoqDsaa1noaF+PuQ8VhFhe11jkbt4KKwxiXtdZVHndG9FN+c35wZQYVh0KDWp9X2zNWedzyGekeWtzfoWzmlxyOQMUT1qTWsjXZ3OifhsxS62XJyN8goeIwVZNay8Zka/rXjJiqNe7CFq2dRsWhjI1ay8bUrcoajVug4jDJvGqtazzuAioOYt611lkbt0DF0+ZDrXVWx11AxdPiU611TsYtUPE0+FZrnbNxF1DxOPlaa53zcQtUPC4+11rXyrgLqHjYQqi1rtVxC1Q8TKHUWtf6uAuoeBhCq7VubuMWqLjfQqy1bq7jLqDifgm51jovxi1QcT+EXmudN+MuoOLzEUutdd6NW6Di7Yqp1jovx11Axd2KsdY6r8ctUHE3Yq21zvtxF1BxO2KvtS6YcQtUvJkUaq0LatwFVLyalGqtC3LcAhU3k1qtdcGOu4CKT5ZqrXXBj1ug4sNSrrUuinEXiopnRM+rW6aiqDhqPSyqcQspzjatHcqoc5gvjb+figi54qj1uOjGXdimE6e4RPtirzhqXS7acYvYK45aTxf1uAuxVRy1NpPEuEUsFUetzSUz7kKoFW9Sa/m9plJrXXLjFqFVvEGt35Lfo/xeU6m1LslxF3yvuIVa75Pfo7qVnKTHLXytOGrdXPLjLvhScdTaHoxbM++Ko9Z2YdwTtF1x1NoNjLtEWxVHrd3BuGdwVXHU2j2M24DtiqPW7cC4K7BRcdS6PRh3RU0rjlq3B+OuqUHFjaHWzWDcDTSp+AyotQUYtwU2K45a24NxW2Kh4qi1ZRi3ZXUqjlq7gXE7MFLxqVBrdzBuh0xKjFq7g3FDtDBuiBbGDdHCuCFaGDdEC+OGaGHcEC2MG6KFcUO0MG6IFsYN0cK4IVoYN0QL44ZoYdwQLYwbooVxQ7QwbogWxg3RwrghWhg3RGvSuHvqLUBohrY7NO5ddPRGouxz6rLMw7tp9WPqMUAr1OYeHlyVye7jDV//X0MPjXuDtpaJ8lvVZZnFa9R7pUtHfq6uAZySrcnm+OHi4E6ZfCdv+L3qYuxlyX/5/I9P3r8ql+WUH+7QygVUHFyRbcnGZGt8mQ3ulpLN/ovPm/0rNjruK3xe47PJZ9bAxRIqDi5ota7yHSjkA+Da4OH4uC/weYTPz/jIR4HJJ5eoOFhTsdajdvPZMXg4Mu4erUmtz/F5lM9TfP7Rv20GFYdGatZayG5/wudTfC7LDTFa7mLgUu0TfJ7lI6/BTaHiUFnDWm/zuZnPE3xu5COfN/aNjVuogf+b/z1rHcq+zm83Bv/EGCoORurXOtvibd7Lb5f54iqfv/BuX1Pb7TP6KFmiB++4RNfkf7V7YHCnkos7qfPpq3Ti1+o6KVyk60/2JPzOqFqqKEitedQv8sOqL0HE2T208/BF+uF5ueDnuMPP49jL50pP7A5aObZN2ff5Jc6CumUqzyg7tU0nP6Ouk4Fxj5Na80sQ+ZaFFX/v2VaX8kc2ae1JdWOqyk8sV3yZKy7fJBQVN4Bxv81mrU1MfM09jfzi/A452CX6inwkqdum8Fo8UU1eW8vWZHNVhi0aVaNpxfkjcX/V/+DQpF7utmutq1xuXdOK8wfG6wu0+h11DZGZR6111qrRsOJ/54/Qu2KseIrlnmetdY3KrWtY8dtQ8TjMu9Y6J9VAxd+WSrl9qbXOWrl1qHhafKq1znk1Uq94zOVW71v5Qjtvaq1zUm4dKh4neZ/I+4YfelVrXavVSLHisZVbvQ9/yw9vG9ypxHmtdc7LrUPFw6bVuuKw26u1bm7VSKXiMZQ7pFrrWi23DhUPQ2i11nlRjZgrHmq5Q621bm7l1qHifgm51jrvqhFbxUMqdwy11nlRbh0qPh+x1Frn9WfqMVTc93LHVmudd+XWoeJuxVhrndfl1oVacR/LHXOtdV6XW4eK2xF7rXXBlFsXUsV9KXcqtdYFU24dKl5NSrXWBVlune8Vn2e5U6y1Lshy61DxyVKttS74cut8rHjb5U691rrgy61LveKo9bCoyq3zpeJtlBu1niyqcutSqThqXS7acuvmWXFX5UatZ4u23LrYKo5am0mi3Lq2K26z3Kh1NUmUWxdqxVHr6pIrt66NijctN2pdX3Ll1vlecdS6maTLrXNV8TrlRq3tSLrcOl8qjlrbg3JPYLPipuVGre1DuSdou+KotRso9wxNK85n1mBNfswkqPUMGLch9d2Tv6d99+Q5PXdSa/PvopsyjLsCVXH5BrFlFXf9fKLWFWDcNXDFH+KKf5crvkPdKp7H0efT0vOLWteBcdfEFb/jEm38ggf+Pr6U51EfuH5dGL02hVrXVPcJB2WBVo/3qPfV/sPBnz7J0QdenIL+eArUuinDJxqm4YrfzhV/iSv+br6UkXfV0YdePC5Me+6l1oe41n9W11ADxm0RV/xrXPGH+OFOPvJ6vBh5cWaMHLW2SZ5wsGQP3X1mgzZv5Ye389nks82nx0fof1Mpj2XUxbD7bzPKXlikxW+u0+82+nehEYzbog36oIz2j3zew+cdfIqBFyMv+6t4+WfyCeOXrtHG33I6U3xAQAMYt0U8yjyjg1f44Vk+8nUi7+/fJpK/wpfBjg5cir3O5wU+n+3R2qsYtj0YdwNdWl3I6EDOg1R3hgZ+gc/LfOQTzJv5jL5MEZf5PMbnGzzsS/07YA3GXVOXjnRzyuWTQxn39Rp3aCXjocrAiyH/ho98/cgtfERR8Ff5fJF/7EuotRvaZ+pQlQyZ38gpxi1j383nKh+5904+Umf5BHEPny/wkZG/yOevPOx/8ltwBOO2RA29+GM+eSmyxePd4vsy9hv4yGtrGfm7+Mjgr0jh+S04gnE7wIOWkRdDl5cn8lYq/h8+PYy6HRi3Yzx0qbi8ppZB7+Ij11JtvM52iuj/bZ8WddGhPpgAAAAASUVORK5CYII=;" vertex="1" parent="1">
          <mxGeometry x="886.71" y="780" width="52.29" height="60" as="geometry" />
        </mxCell>
        <mxCell id="xIAL2lGmnQFQKnVaAjIA-5" value="" style="shape=image;verticalLabelPosition=bottom;labelBackgroundColor=default;verticalAlign=top;aspect=fixed;imageAspect=0;image=data:image/png,iVBORw0KGgoAAAANSUhEUgAAAWQAAAFlCAYAAADcR5KFAAAAAXNSR0IArs4c6QAAAARnQU1BAACxjwv8YQUAAAAJcEhZcwAADsMAAA7DAcdvqGQAABnNSURBVHhe7d1PjF3XXcDx35sZuymZOoPEot2QqWABC8BpF1CJIncDYlHhiA0LpNqqHQVV0KkqVBCLOAsEEYs6oIo0Y5FUYsGKJAIhoEJNWyTUTe2wR4m7oUvbtYUTz7zLOfPOi8+z58w7955z7j1/vh9pNPceO+OZ8W9+8/X4eSIAAAAAAAAAAAAAAAAAAAAA0NPMPAeyd0oun51L9/VO5Jy+V8P79inZunhfXnnv6CcAhds0z4GsbcilF9Qi/gd1ubs4ObJ7KPO9mXxKOvnhd80ZUCwKGVnTVXwo3Wvq8uzixOnGpswuPpD9G+YeKA6FjGxZVfzxxcmJPq5+7vPUMkpGISM7ParYhVpGkShkZKVnFbtQyygShYwsRKhiF2oZxaCQMblIVexCLaMYFDImk7CKXahlZG3DPAdGpatYLePr6rLnMp69o5bqM/pJX5tDX/oTwHX9a5t7ICsUMkYVWMUvzuXaFXN9RC1XfT9kwd44LVvP8q/8kBO+hozRDP9a8VEV//ahXNP/7YpOfvj2lnz6rU5mn1G3fV7uxw9lfmEmn76vXsYPzBkwKQoZycWuYpehtaw+CPieGMgChYykUlSxS0At6++JQS1jchQykhiril2oZZSIQkZ0G3L5y510r6tL+zuzeehfxS7UMkpEISOaJ+T53Qdy8Fpnvl9xT8FV7EItoxQUMqLQVazKUpftLyxOfMWrYhdqGaWgkBEk1yp2oZaRMwoZg+VcxS7UMnJGIaO30qrYhVpGbihk9FJiFbtQy8gNhQwvtVSxC7WMHFDIWKumKnahlpEDChlOtVexC7WMqVDIOFYLVexCLWMqFDJWtFrFLtQyxkQh40MtV7ELtYwxUcigij1Ry0iNQm4cVeyPWkZqFHKjqOIw1DJSoJAbRBWHo5aRAoXcEKo4DWoZsVDIjaCK06GWEQuFXDmqeFzUMkJQyBWjisdHLSMEhVwhqjgP1DL6opArQxXng1pGXxRyJajivFHL8EEhV4Aqzh+1DB8UcsGo4jJRy3ChkAtFFZeLWoYLhVwYqrgu1DJsFHJBqOL6UMuwUcgFoIrbQC2DQs4cVdwOahkUcqao4rZRy22ikDNEFYNabhOFnBGqGMehlttBIWeCKoYLtdwOCnliVDH6oJbrRiFPiCpGX9Ry3SjkCVDFiIFarg8LeWS6ilXn6A+kncWJL13FcuGB7N8wB4CckstnD6V7U10+vTjxdkvN1JW57L9s7pEBFvJIqGKksiN7O3flnlqunfpk3w+1nBcW8gi25Lk/mcv8z9Tl9uLEF1UMf1ty6dxc5HV12beW727Ixp8fyKt/ae4xERZyQk/Ipc9+IPLvR5f9UcXoLaSWlfunRX7zvlz7vrnHyFjIiezIl56+I+//j7rs+UgWqhjhAmr58Ixs/8wtuXrL3GNEPOwtkQfyK99Uz35pcedNV/HvzeWHPzb3wCBqht57Sn7j9Qfy4KOdyK+ZYx8b6r+5p/7775l7jGjDPEdkncx+1Vz6uLkps2f4EgVi0pV7IPt76oP8c+r29uJ0PVXWv2suMTIWciIz6fpU7tPqg+AF/fU/cw9EoWdKxYH+evJTixMvQ/7OAxGwkBOZyazXv4bqpDt/R+6+uynPnTdHQBA9S3qm9GyZIy8qJviXfBNhIScyl27IX4qompm/sSmX36CWMZSeHT1DepaObnvqRHhM8kRYyBmiljHU0CpGHljI+aKW4S20ipEHFnLmqGWsQxXXg4VcBmoZj6GK68NCnshM5Fvq2c3FnR9qGUsBVXzTzB4yxEKeiP6b7DOyfXZDZn2//SG13LCQKtazpmeOR1Hki4U8oUf+JRW1jBOFVLGeMT1rfI+KvLGQM3Ag196mluESo4r1jJkjZIyFnAlqGcehitvCQs4MtQyNKm4TCzlD1HLbqOJ2sZAzRi23hSoGCzlz1HIbqGJoLORCUMt1oophYyEXhFquC1WMR7GQC0Qtl40qhgsLuVDUcpmoYpyEhVw4arkMVDF8sJArQC3njSqGLxZyRajlvFDF6IuFXBlqOQ9UMYZgIVeKWp4GVYwQLOSKUcvjoooRioXcAGo5LaoYsbCQG0Etp0EVIyYWcmOo5TioYqTAQm4QtRyGKkYqLOSGUcv9UMVIjYXcOGrZD1WMMbCQcYRaPh5VjDGxkPEhankVVYyxsZDxmGUtz0TeMke+qqhlqhhTYSHjWLrsDuXa+ZlsPKtuby9O/ZRcy1QxpsRCxokO5dU3VfHt1l7LVDFywELGWrXXMlWMXLCQ4a22WqaKkRsWMnqppZapYuSIhYxBSq3lkCrWbytVjJRYyBistFoOqOLb+m3UbytVjJRYyAiWey1HqOJd/TaaIyAZFjKiyLWWqWKUhIWMqHKpZaoYJWIhI7qpa5kqRqlYyEhm7FqmilE6FjKSGquWqWLUgIWMUaSqZaoYNWEhYzSxa5kqRm1YyBhdjFqmilEjFjImEVrLVDFqxELGpAJq2RtVjFKwkDG5kFpegypGUVjIyEbMWqaKUSIWMrISoZapYhSLhYwsDallqhilYyEjW4/U8omoYtSAhYzs+RQvVYwasJABIBMsZADIBAsZADLBQgaATLCQASATLGQAyAQLGQAywUIGgEywkAEgEyxkAMgECxkAMsFCBoBMsJABIBMsZADIBAsZADLBQgaATLCQASATLGQAyAQLGQAywUIGgEywkAEgEyxkAMgECzmBJ+T5XZHZF8yty1c/Ks/9urkGRmFm7quLO5fZFxYzjLGxkCPbkMtf/kAOrot06wZ6+32Zf29TLv+juQeS0rOmZ05dbi9OXLpdPcN6ls0BRjIzzxFIF8UDOXitEzlnjvq49RHZ+Pz/yav/ae7xiA25pN61bnO5xiw76CpWi/if1OXO4sSfeqe+fUq2Lt6XV94zR0iIQo5gWcUDl7G2Qy0jBauKey9jTc80tTweqiJAYBW7UMvHoJD7CaliF2o5PQp5oAhV7EItI0hoFbtQy+lRFT0lqmIXatmgkNdLUcUu1HIaFHIPw6t49s6GzF5Szw/MgS9qGV6GV/HsQM3mC3pGzYEXajkNCtlDYBW/qOrtir7YkS89fUfef0NdPqPve2q6link4wVW8fUz8pFnb8k3buob9T7Wc6qWcz/UcjwU8hohVbwps2eWy1jTg6/uP7Up8hVdJubYF7WMFSFVrGdQz+JyGWt6VvXM6tk1R16o5XgoZIdYVexCLfdDIT8Us4pdqOVpUMjHiFnFLtQyhohdxS56hqnl8VHIltRV7BJay6p4zvp8kJWs9UIeo4pdqOXxUMjGGFXsElrLapm/uyXP/YW5R2XGqmIXPdvU8jiaL+SpqtglsJb/V5XQZ2qs5RYLecoqdqGW02q6kKesYpfAWv4EtVyHqavYRc88tZxOk4WcWxW7UMsPtVLIOVaxC7UcX3OFnGMVu1DLbcm1il30xwK1HFczhVxKFbu0Xss1F7L5vb1xdNnfqFXssiWXr86l671gqeVVTRRySVXsQi3XSf+e6N8bdVlEFbscyP6eWiafU5e9XhdqeVXVhVx6Fbu0WMu1FbL5PfwvdfmJxUkvWVTxcXZkb+eu3LtCLQ9T7UJefMbt9ELtWx6qiuXCA9nXf4TM2im5tHcos79Sb+eWOfLVbcjGSwfy6p+a++zVtJB1Fc9l/jV12fN11lXc/fEDuXbVHGRrSy6dm4u8ri6fXpx4u6XeTrXQ9182902pbiHXWsUurdRyDQu51ip2oZb7q2oht1DFLrXXcukLuYUqdqGW/VWxkFurYpeaa7nUhdxaFbtQy36KX8jDq1hubsrsfMlV7FJjLZe4kFuuYhdq+WTFLuSQKt6Q2cvb8uSVW3JV/SbXqbZaLmkhU8Uno5bdilzIIVW8IXLhQK69be6rV0stl7KQqWJ/1PLjilrIVPEwNdRy7guZKh6GWl5VzEKmisOVXMs5L2SqOBy1vJD9QqaK4yq1lnNcyFRxXNRy5guZKk6ntFrObSFTxem0XMtZLmSqeBwl1XIuC5kqHkertZzdQqaKx1dCLeewkKni8YXU8kw2Lh7Kq2+a+yJks5Cp4mnlXstTLmSqeFphtTx782Py5MVSdkMWC5kqzkeutTzVQqaK89FCLU+6kKniPOVYy2MvZKo4T7XX8mQLmSrOX061POZCporzV2stj76QqeKy5FLLYyxkqrgsNdbyqAuZKi7X1LWceiFTxeWqqZZHWcj6M9lP5J6q4u68OfJGFedjylpOtZCp4jrUUsvJF/KmPHe+k/lr6pIqrsQUtZxiIVPF9Sm9lpMtZKq4bmPXcsyFTBXXreRaTrKQqeJ2jFXLsRYyVdyOEms56kKmits0Ri2HLmSquE2l1XK0hUwVI2Uthyxkqhil1HLwQqaKYUtVy0MWMlUMWwm1HLSQqWK4xK7lvguZKoZLzrU8aCFTxfARs5Z9FzJVDB+51nLvhUwVo68YteyzkKli9JVbLXsPLlWMEKG1rJ7WFa/PzzkOVdy4nGrZayFTxYgloJYjo4qxKodaPnEhU8VIIbCWY6CKcaypa9m5kKlipDZ+LVPF8DNVLT+2kJ+QS5/9QGZ/rz5IftYceaOK0deilj/4DzVvP2eOUqGK0UtILavV+qPT0v3+fbn2fXPgZWUhn5IvXlLFsm9u+6CKEWT4IyTWoYoRJqCW1U6dff592f9nc7uW2qMPqWX8DXPpTVfxGdk+yzJGCP3QNlWwn1QLVD9aIhZVxad/nmWMEHq36R2nd5058vZAul6B+2GNnJLLZw+lu25ufVDFSCK8lqlipDGklk/L1ifvyyvvmdsTrRRyHzOZfWdbtm+YWyCabfmpl9R8/Yu57U1t8X97Urb1Bw0Qld55eveZWy8HcrBrLtdaKZB1/xrqcbP3NqS7SCUjloBH9zxq1O/Shfot6nimZrPzXrDaGdn+ad8HOgQu5AWV2VfVZ44XeXQFhgp5zPtJYv9LKrRn8WiLuy/MRfbMUS8nfWvYRw3+koVNv6J35N51/RnEHAHedBXfkbvvxl7Gmn6Z+mXrX8McAd70TtO7begy7itKIduoZfhKVcUu1DJ8hVaxbfRCtlHL8JGyil2oZfgYu4pt0QvZRi3jUWNXsQu1jEfFrGJbykK+bZ57oZZhC6hin7nrNZvUMmwBVdxr7tbptZDPyPauWvVvmVtP3a56I7+j3uCv689A5hAN0b/vm3L5jU7m+ju89ZoBPW967syt07DZlB39OunXjdlsk/5917tJ76i+D2fznc0+VlLa5//KoJ/rqlCDrB94/5S+98fjlltjZmXI44pvz2TjwvJxxOlnk8ctt0ZX8ZDHFSuDZtPHoL/U068ItYyTxKjiIctx+GxSy62IUcWpPnGvbO4hm55axqNiVbGN2UQMsarYNnkh24YXCbVcm6mq2IXZxFLOVWxb2dyhm54iaVeKKrYxmxgqRRXbsipkG0XSntyq2IXZbE8pVWxb2dwxNz1FUr/UVWxjNtFH6iq2ZVvINoqkXsvyyL2KXZjNepVYxbaVzR1z09soknqMWR42ZhPr1DCbyQrZRpGUr/TycGE2y1fTbK5s7lQVYqNIyjNVediYTRynttkcpZBtFEk5aq1iF2azHLXO5srmHqNCbBRJvnIoDxuziaWaZ3P0QrZRJPlprYpdmM38tDCbK5t77AqxUSTTy608bMxm21qZzUkL2UaRTIcqPhmzOZ3WZnNlc09ZITaKZDw5l4eN2WxPi7OZTSHbKJL0qOJhmM30Wp7Nlc2dS4XYKJL4SikPG7PZhtZnM8tCtlEk8VDFcTGb8TCbCyubO8cKsVEkw5VYHjZms17M5kPZF7JNv+NPy9ZZ9dZ91xx5ardIKI9x6PcRtdwPs/m4lc2de4XY1Ou6p55dUU8UiUPp5WEraTap5fWYzeMVVcg29UZepZaPR3lMi1p2YzZPtrK5S6oQG7X8UE3lYSt1Nqnlh5jN9YotZBu1THnkilpmNvtY2dylVoitxVqutTxsNcxmi7XMbDZYyLaWapnyKEtLtcxsDrOyuWuoEFvNtdxCedhqm82aazlsNmd7h7Kv3y/FoJA91VjLlEcdaqzlwNn8rv5YLW0Zx7ayuWurEFsNtRxWHuVVsa3m2ayhlkNmUz1d0fG0uC0PhTxAybVMFdet5FqOUcUlL+PYVjZ3zRViK6mWQ8qj9Cq2tTKbJdVyyGyqp6Kr2EYhB9KDkHstU8VtKqGWqeJ0VjZ3KxViy7GWQ8qjpiq2tTibOdZyyGyqp2qq2EYhR6QHJJdapophy6mWqeJxrGzuFivEFlLLmyLPPpD9G+agt5DyqLWKba3P5pS1HDKb6qnKKrZRyInowRlay4fSXVe/MS+YA29UMXxMUctU8fhWNnfrFWIbXstyY1NmF31qmSr2x2w+NEYtU8X+KOQR6IEaVstydl0tU8UIkbKWqeJprWxuKuR4MWuZKh6G2TxezFqmioehkEemBy20lqlipBCjlp+Q53ep4jysbG4qZL2AWh6i6Sq2MZvrDa/lQZquYhuFPCE9gANruRf18qli9DK8lvvRs08Vp8FCHuC+vPLeoVw7py6/op50KcSkq/hZ9fLP35Krt8wZ4EXPjJ4ddZlkNtXTV/Ts64+BxRFiYiEHiF3LVDFiSTCbVPEIWMiBItUyVYzoYs2meqKKR8JCjmRokVDFSC1gNqnikbGQI3qkSO4fHbrdp4oxlr6zqZ6o4gmwkBPQRbEhs2+a22OpH3+ZKsbYPGfzm1TxNFjIicylO7F61Y+vqxQgCY/Z5E9sE2EhA0AmWMgAkAkWMgBkgoUMAJlgIQNAJljIAJAJFjIAZIKFDACZYCEDQCZYyACQCRYyAGSChQwAmWAhA0AmWMgAkAkWMgBkgoUMAJlgIQNAJljIAJAJFjIAZIKFDACZYCEDQCZ6LeQd2dsxl8BofOaO2cQUYs9dr4V8R+6+uynPnTe3QHJ63vTcmVsnZhNj853NPvp+yWKnk/kbm3L5DYoEKen50nOm5+3odj1mE6MYMJveHl3IN83zE3XSHX1moEiQwrI89JyZI2/MJlIaMJteO3VpZSHPRG6YSx8UCaKKWB7MJqIaOptqp75tLr2sLOSPyfYF9SLeMbdeKBLEEFLFLswmYhg+m7N31E7dMzdeVhbyLbl664w8eU5t9bfMkS+KBINErGIXZhODhMym3qF6l+qdao68PPaXevoFHMq18zPZeFbd3l6c+qFI0EdAFf/YPHljNtFHwGze1rtT79C+y1h7bCEvHcqrb56R7V1qGbGFlMeGzF5Wc/mL+klfm2NfzCZOFF7F27t6d5qj3pwLWaOWEVtAedxUw/q5A9nf03Opn/S1PtM/tvgpfphNHGeqKraduJCXqGWEilDFZw/k2mN/Y63P9I9Ryxhq6iq2eS1kjVrGULGq2Jw9hlrGUDlUsc17IS9Ry/CVqopdqGX4yqmKbb0Xshajlrfk0jlzhAqlrmIXahnr5FbFtkELeSmkluci31FL+esUSV3GrmIXahmPyrWKbUELWQupZbWU9+7IvevUch2mqmIXahlLOVexLXghLw2v5W6XWi5bLlXsQi23q4QqtkVbyBq13J7cqtiFWm5PKVVsi7qQl6jl+uVexS7Ucv1Kq2JbkoWsUcv1KqWKXajlepVYxbZkC3mJWq5HqVXsQi3Xo+QqtiVfyBq1XL7Sq9iFWi6f3g0lV7FtlIW8RC2Xp7YqdlnWsprNb5kjX9TyRPT7W+8EvRuObnvIqYptoy5kjVouR61V7GJm88KQ2aSWx7Wo4nvX9U4wR76yq2Lb6At5iVrOVytV7DJ8Nqnl1FaruNs1x15yrWLbZAtZo5bz01oVu4TMJrWcRq1VbJt0IS9Ry9NrvYpdqOXp1V7FtiwWskYtT4cqPhm1PJ0WqtiWzUJeopbHE1LFpjyqrGIXank8LVWxLbuFrFHL6QVUcZHlEQu1nF5rVWzLciEvUcvxRajiIssjNmo5vlar2Jb1Qtao5Xio4rio5XharmJb9gt5iVoejipOi1oejipeVcxC1qjl/qjicVDL/VHFjytqIS9Ry+tRxdOgltejit2KXMgatexGFU+LWnajik9W7EJeopYfoorzQi0/RBX7KX4ha9QyVZwrapkq7qOKhbzUYi1TxWWIUMuvlTibVHE/VS1kraVaporLEljLF0qaTap4mOoW8lLNtUwVl6322dSvH1U8TLULWauxlqniOtQ4m/r1oYrDVL2Ql2ooEqq4TrXMpn499OtDFYdpYiFrJRcJVVy3kmdT/7pUcTzNLOSlkoqEKm5LabOpfz3961LF8TS3kLUSimRRHlRxa8qZTao4hSYX8lKORbJaHlRxq/KfTao4haYXspZTkeiXQ3lgidlsT/MLeWnKIqE8cBJmsx0sZMsURaJ/PuWBdZjNNqhPYjiOLoOfyN3XO5HfMUfe1Ge5q+pd+/5cuq+Zo8dsyOwlVRwfGTDsR+XxMdm+wLC3idmsFwt5Df0Y4E7mr6vLpxYn3vRAnvTHxHU/fhxdHhf4IyA0ZrM+fMlijeFfv1s70L0GXv/6fD0ONmazPhRyDwFFEoLywFrMZh0o5B4CimQQygO+mM06UMgDJS4SygODMZvlopAHSlUklAdCMZvlopAjiFQklAeiYzbLQiFHEFoklAdSYTbLQiFH1rNIKA+MhtnMH4UcmR7g07J1dibdD8zRsdRnwm9THhiTnjVTy982R8diNqdDISe0KZf+tRP5LXP7oZnM/uZQ9v/I3AKj25TLf91J94fm9kNqNv9OzeYXzS1GxkJO7En5g1++LwcvinQ76t196wnZeuGe/O1/mx8GJsNsAgAAAAAAAAAAAAAAoEQi/w9MlMkB5mhAvwAAAABJRU5ErkJggg==;" vertex="1" parent="1">
          <mxGeometry x="607.02" y="740" width="89.75" height="90" as="geometry" />
        </mxCell>
      </root>
    </mxGraphModel>
  </diagram>
</mxfile>
